# Blender 5.0.1
# www.blender.org
mtllib sphereblender.mtl
o Sphere
v 0.000000 0.000000 1.000000
v 0.000000 0.555570 0.831470
v 0.000000 0.831470 0.555570
v 0.000000 0.980785 0.195090
v 0.000000 1.000000 0.000000
v 0.000000 0.980785 -0.195090
v 0.000000 0.831470 -0.555570
v 0.000000 0.000000 -1.000000
v 0.038060 0.191342 0.980785
v 0.074658 0.375330 0.923880
v 0.108386 0.544895 0.831470
v 0.137950 0.693520 0.707107
v 0.162212 0.815493 0.555570
v 0.180240 0.906127 0.382683
v 0.191342 0.961940 0.195090
v 0.195090 0.980785 0.000000
v 0.191342 0.961940 -0.195090
v 0.180240 0.906127 -0.382683
v 0.162212 0.815493 -0.555570
v 0.137950 0.693520 -0.707107
v 0.108386 0.544895 -0.831470
v 0.074658 0.375330 -0.923880
v 0.038060 0.191342 -0.980785
v 0.074658 0.180240 0.980785
v 0.146447 0.353553 0.923880
v 0.212608 0.513280 0.831470
v 0.270598 0.653281 0.707107
v 0.318190 0.768178 0.555570
v 0.353553 0.853553 0.382683
v 0.375330 0.906127 0.195090
v 0.382683 0.923879 0.000000
v 0.375330 0.906127 -0.195090
v 0.353553 0.853553 -0.382683
v 0.318190 0.768178 -0.555570
v 0.270598 0.653281 -0.707107
v 0.212608 0.513280 -0.831470
v 0.146447 0.353553 -0.923880
v 0.074658 0.180240 -0.980785
v 0.108386 0.162212 0.980785
v 0.212608 0.318190 0.923880
v 0.308658 0.461940 0.831470
v 0.392847 0.587938 0.707107
v 0.461940 0.691342 0.555570
v 0.513280 0.768178 0.382683
v 0.544895 0.815493 0.195090
v 0.555570 0.831469 0.000000
v 0.544895 0.815493 -0.195090
v 0.513280 0.768178 -0.382683
v 0.461940 0.691342 -0.555570
v 0.392847 0.587938 -0.707107
v 0.308658 0.461940 -0.831470
v 0.212608 0.318190 -0.923880
v 0.108386 0.162212 -0.980785
v 0.137950 0.137950 0.980785
v 0.270598 0.270598 0.923880
v 0.392847 0.392847 0.831470
v 0.500000 0.500000 0.707107
v 0.587938 0.587938 0.555570
v 0.653281 0.653281 0.382683
v 0.693520 0.693520 0.195090
v 0.707107 0.707107 0.000000
v 0.693520 0.693520 -0.195090
v 0.653281 0.653281 -0.382683
v 0.587938 0.587938 -0.555570
v 0.500000 0.500000 -0.707107
v 0.392847 0.392847 -0.831470
v 0.270598 0.270598 -0.923880
v 0.137950 0.137950 -0.980785
v 0.162212 0.108386 0.980785
v 0.318190 0.212608 0.923880
v 0.461940 0.308658 0.831470
v 0.587938 0.392847 0.707107
v 0.691342 0.461940 0.555570
v 0.768178 0.513280 0.382683
v 0.815493 0.544895 0.195090
v 0.831470 0.555570 0.000000
v 0.815493 0.544895 -0.195090
v 0.768178 0.513280 -0.382683
v 0.691342 0.461940 -0.555570
v 0.587938 0.392847 -0.707107
v 0.461940 0.308658 -0.831470
v 0.318190 0.212608 -0.923880
v 0.162212 0.108386 -0.980785
v 0.180240 0.074658 0.980785
v 0.353553 0.146447 0.923880
v 0.513280 0.212607 0.831470
v 0.653281 0.270598 0.707107
v 0.768178 0.318190 0.555570
v 0.853553 0.353553 0.382683
v 0.906127 0.375330 0.195090
v 0.923879 0.382683 0.000000
v 0.906127 0.375330 -0.195090
v 0.853553 0.353553 -0.382683
v 0.768178 0.318190 -0.555570
v 0.653281 0.270598 -0.707107
v 0.513280 0.212607 -0.831470
v 0.353553 0.146447 -0.923880
v 0.180240 0.074658 -0.980785
v 0.191342 0.038060 0.980785
v 0.375330 0.074658 0.923880
v 0.544895 0.108386 0.831470
v 0.693520 0.137950 0.707107
v 0.815493 0.162212 0.555570
v 0.906127 0.180240 0.382683
v 0.961940 0.191342 0.195090
v 0.980785 0.195090 0.000000
v 0.961940 0.191342 -0.195090
v 0.906127 0.180240 -0.382683
v 0.815493 0.162212 -0.555570
v 0.693520 0.137950 -0.707107
v 0.544895 0.108386 -0.831470
v 0.375330 0.074658 -0.923880
v 0.191342 0.038060 -0.980785
v 0.195090 -0.000000 0.980785
v 0.382683 -0.000000 0.923880
v 0.555570 -0.000000 0.831470
v 0.707107 0.000000 0.707107
v 0.831469 -0.000000 0.555570
v 0.923879 0.000000 0.382683
v 0.980785 -0.000000 0.195090
v 1.000000 -0.000000 0.000000
v 0.980785 -0.000000 -0.195090
v 0.923879 0.000000 -0.382683
v 0.831469 -0.000000 -0.555570
v 0.707107 0.000000 -0.707107
v 0.555570 -0.000000 -0.831470
v 0.382683 -0.000000 -0.923880
v 0.195090 -0.000000 -0.980785
v 0.191342 -0.038060 0.980785
v 0.375330 -0.074658 0.923880
v 0.544895 -0.108386 0.831470
v 0.693520 -0.137950 0.707107
v 0.815493 -0.162212 0.555570
v 0.906127 -0.180240 0.382683
v 0.961940 -0.191342 0.195090
v 0.980785 -0.195090 0.000000
v 0.961940 -0.191342 -0.195090
v 0.906127 -0.180240 -0.382683
v 0.815493 -0.162212 -0.555570
v 0.693520 -0.137950 -0.707107
v 0.544895 -0.108386 -0.831470
v 0.375330 -0.074658 -0.923880
v 0.191342 -0.038060 -0.980785
v 0.180240 -0.074658 0.980785
v 0.353553 -0.146447 0.923880
v 0.513280 -0.212608 0.831470
v 0.653281 -0.270598 0.707107
v 0.768178 -0.318190 0.555570
v 0.853553 -0.353553 0.382683
v 0.906127 -0.375330 0.195090
v 0.923879 -0.382683 0.000000
v 0.906127 -0.375330 -0.195090
v 0.853553 -0.353553 -0.382683
v 0.768178 -0.318190 -0.555570
v 0.653281 -0.270598 -0.707107
v 0.513280 -0.212608 -0.831470
v 0.353553 -0.146447 -0.923880
v 0.180240 -0.074658 -0.980785
v 0.162212 -0.108386 0.980785
v 0.318190 -0.212608 0.923880
v 0.461940 -0.308658 0.831470
v 0.587938 -0.392847 0.707107
v 0.691341 -0.461940 0.555570
v 0.768178 -0.513280 0.382683
v 0.815493 -0.544895 0.195090
v 0.831469 -0.555570 0.000000
v 0.815493 -0.544895 -0.195090
v 0.768178 -0.513280 -0.382683
v 0.691341 -0.461940 -0.555570
v 0.587938 -0.392847 -0.707107
v 0.461940 -0.308658 -0.831470
v 0.318190 -0.212608 -0.923880
v 0.162212 -0.108386 -0.980785
v 0.137950 -0.137950 0.980785
v 0.270598 -0.270598 0.923880
v 0.392847 -0.392847 0.831470
v 0.500000 -0.500000 0.707107
v 0.587938 -0.587938 0.555570
v 0.653281 -0.653281 0.382683
v 0.693520 -0.693520 0.195090
v 0.707106 -0.707107 0.000000
v 0.693520 -0.693520 -0.195090
v 0.653281 -0.653281 -0.382683
v 0.587938 -0.587938 -0.555570
v 0.500000 -0.500000 -0.707107
v 0.392847 -0.392847 -0.831470
v 0.270598 -0.270598 -0.923880
v 0.137950 -0.137950 -0.980785
v 0.108386 -0.162212 0.980785
v 0.212607 -0.318190 0.923880
v 0.308658 -0.461940 0.831470
v 0.392847 -0.587938 0.707107
v 0.461940 -0.691342 0.555570
v 0.513280 -0.768178 0.382683
v 0.544895 -0.815493 0.195090
v 0.555570 -0.831469 0.000000
v 0.544895 -0.815493 -0.195090
v 0.513280 -0.768178 -0.382683
v 0.461940 -0.691342 -0.555570
v 0.392847 -0.587938 -0.707107
v 0.308658 -0.461940 -0.831470
v 0.212607 -0.318190 -0.923880
v 0.108386 -0.162212 -0.980785
v 0.074658 -0.180240 0.980785
v 0.146447 -0.353553 0.923880
v 0.212607 -0.513280 0.831470
v 0.270598 -0.653281 0.707107
v 0.318189 -0.768178 0.555570
v 0.353553 -0.853553 0.382683
v 0.375330 -0.906127 0.195090
v 0.382683 -0.923879 0.000000
v 0.375330 -0.906127 -0.195090
v 0.353553 -0.853553 -0.382683
v 0.318189 -0.768178 -0.555570
v 0.270598 -0.653281 -0.707107
v 0.212607 -0.513280 -0.831470
v 0.146447 -0.353553 -0.923880
v 0.074658 -0.180240 -0.980785
v 0.038060 -0.191342 0.980785
v 0.074658 -0.375330 0.923880
v 0.108386 -0.544895 0.831470
v 0.137950 -0.693520 0.707107
v 0.162212 -0.815493 0.555570
v 0.180240 -0.906127 0.382683
v 0.191342 -0.961939 0.195090
v 0.195090 -0.980785 0.000000
v 0.191342 -0.961939 -0.195090
v 0.180240 -0.906127 -0.382683
v 0.162212 -0.815493 -0.555570
v 0.137950 -0.693520 -0.707107
v 0.108386 -0.544895 -0.831470
v 0.074658 -0.375330 -0.923880
v 0.038060 -0.191342 -0.980785
v -0.000000 -0.195090 0.980785
v -0.000000 -0.382683 0.923880
v -0.000000 -0.555570 0.831470
v -0.000000 -0.707107 0.707107
v -0.000000 -0.831469 0.555570
v 0.000000 -0.923879 0.382683
v -0.000000 -0.980785 0.195090
v -0.000000 -0.999999 0.000000
v -0.000000 -0.980785 -0.195090
v 0.000000 -0.923879 -0.382683
v -0.000000 -0.831469 -0.555570
v -0.000000 -0.707107 -0.707107
v -0.000000 -0.555570 -0.831470
v -0.000000 -0.382683 -0.923880
v -0.000000 -0.195090 -0.980785
v -0.038060 -0.191342 0.980785
v -0.074658 -0.375330 0.923880
v -0.108386 -0.544895 0.831470
v -0.137950 -0.693520 0.707107
v -0.162212 -0.815493 0.555570
v -0.180240 -0.906127 0.382683
v -0.191342 -0.961939 0.195090
v -0.195091 -0.980785 0.000000
v -0.191342 -0.961939 -0.195090
v -0.180240 -0.906127 -0.382683
v -0.162212 -0.815493 -0.555570
v -0.137950 -0.693520 -0.707107
v -0.108386 -0.544895 -0.831470
v -0.074658 -0.375330 -0.923880
v -0.038060 -0.191342 -0.980785
v -0.074658 -0.180240 0.980785
v -0.146447 -0.353553 0.923880
v -0.212608 -0.513280 0.831470
v -0.270598 -0.653281 0.707107
v -0.318190 -0.768177 0.555570
v -0.353553 -0.853553 0.382683
v -0.375330 -0.906127 0.195090
v -0.382683 -0.923879 0.000000
v -0.375330 -0.906127 -0.195090
v -0.353553 -0.853553 -0.382683
v -0.318190 -0.768177 -0.555570
v -0.270598 -0.653281 -0.707107
v -0.212608 -0.513280 -0.831470
v -0.146447 -0.353553 -0.923880
v -0.074658 -0.180240 -0.980785
v -0.108386 -0.162212 0.980785
v -0.212608 -0.318190 0.923880
v -0.308658 -0.461939 0.831470
v -0.392847 -0.587938 0.707107
v -0.461940 -0.691341 0.555570
v -0.513280 -0.768178 0.382683
v -0.544895 -0.815493 0.195090
v -0.555570 -0.831469 0.000000
v -0.544895 -0.815493 -0.195090
v -0.513280 -0.768178 -0.382683
v -0.461940 -0.691341 -0.555570
v -0.392847 -0.587938 -0.707107
v -0.308658 -0.461939 -0.831470
v -0.212608 -0.318190 -0.923880
v -0.108386 -0.162212 -0.980785
v -0.137950 -0.137950 0.980785
v -0.270598 -0.270598 0.923880
v -0.392847 -0.392847 0.831470
v -0.500000 -0.500000 0.707107
v -0.587938 -0.587937 0.555570
v -0.653281 -0.653281 0.382683
v -0.693520 -0.693520 0.195090
v -0.707106 -0.707106 0.000000
v -0.693520 -0.693520 -0.195090
v -0.653281 -0.653281 -0.382683
v -0.587938 -0.587937 -0.555570
v -0.500000 -0.500000 -0.707107
v -0.392847 -0.392847 -0.831470
v -0.270598 -0.270598 -0.923880
v -0.137950 -0.137950 -0.980785
v -0.162212 -0.108386 0.980785
v -0.318190 -0.212607 0.923880
v -0.461940 -0.308658 0.831470
v -0.587938 -0.392847 0.707107
v -0.691341 -0.461939 0.555570
v -0.768177 -0.513280 0.382683
v -0.815493 -0.544895 0.195090
v -0.831469 -0.555569 0.000000
v -0.815493 -0.544895 -0.195090
v -0.768177 -0.513280 -0.382683
v -0.691341 -0.461939 -0.555570
v -0.587938 -0.392847 -0.707107
v -0.461940 -0.308658 -0.831470
v -0.318190 -0.212607 -0.923880
v -0.162212 -0.108386 -0.980785
v -0.180240 -0.074658 0.980785
v -0.353553 -0.146447 0.923880
v -0.513280 -0.212607 0.831470
v -0.653281 -0.270598 0.707107
v -0.768177 -0.318189 0.555570
v -0.853553 -0.353553 0.382683
v -0.906127 -0.375330 0.195090
v -0.923879 -0.382683 0.000000
v -0.906127 -0.375330 -0.195090
v -0.853553 -0.353553 -0.382683
v -0.768177 -0.318189 -0.555570
v -0.653281 -0.270598 -0.707107
v -0.513280 -0.212607 -0.831470
v -0.353553 -0.146447 -0.923880
v -0.180240 -0.074658 -0.980785
v -0.191342 -0.038060 0.980785
v -0.375330 -0.074658 0.923880
v -0.544895 -0.108386 0.831470
v -0.693520 -0.137950 0.707107
v -0.815493 -0.162211 0.555570
v -0.906127 -0.180240 0.382683
v -0.961939 -0.191341 0.195090
v -0.980784 -0.195090 0.000000
v -0.961939 -0.191341 -0.195090
v -0.906127 -0.180240 -0.382683
v -0.815493 -0.162211 -0.555570
v -0.693520 -0.137950 -0.707107
v -0.544895 -0.108386 -0.831470
v -0.375330 -0.074658 -0.923880
v -0.191342 -0.038060 -0.980785
v -0.195090 0.000000 0.980785
v -0.382683 0.000000 0.923880
v -0.555570 0.000000 0.831470
v -0.707107 0.000000 0.707107
v -0.831469 0.000000 0.555570
v -0.923879 0.000000 0.382683
v -0.980785 0.000000 0.195090
v -0.999999 0.000000 0.000000
v -0.980785 0.000000 -0.195090
v -0.923879 0.000000 -0.382683
v -0.831469 0.000000 -0.555570
v -0.707107 0.000000 -0.707107
v -0.555570 0.000000 -0.831470
v -0.382683 0.000000 -0.923880
v -0.195090 0.000000 -0.980785
v -0.191342 0.038060 0.980785
v -0.375330 0.074658 0.923880
v -0.544895 0.108386 0.831470
v -0.693520 0.137950 0.707107
v -0.815493 0.162212 0.555570
v -0.906127 0.180240 0.382683
v -0.961939 0.191342 0.195090
v -0.980784 0.195091 0.000000
v -0.961939 0.191342 -0.195090
v -0.906127 0.180240 -0.382683
v -0.815493 0.162212 -0.555570
v -0.693520 0.137950 -0.707107
v -0.544895 0.108386 -0.831470
v -0.375330 0.074658 -0.923880
v -0.191342 0.038060 -0.980785
v -0.180240 0.074658 0.980785
v -0.353553 0.146447 0.923880
v -0.513279 0.212607 0.831470
v -0.653281 0.270598 0.707107
v -0.768177 0.318190 0.555570
v -0.853553 0.353553 0.382683
v -0.906127 0.375330 0.195090
v -0.923878 0.382683 0.000000
v -0.906127 0.375330 -0.195090
v -0.853553 0.353553 -0.382683
v -0.768177 0.318190 -0.555570
v -0.653281 0.270598 -0.707107
v -0.513279 0.212607 -0.831470
v -0.353553 0.146447 -0.923880
v -0.180240 0.074658 -0.980785
v -0.162212 0.108386 0.980785
v -0.318189 0.212607 0.923880
v -0.461939 0.308658 0.831470
v -0.587938 0.392847 0.707107
v -0.691341 0.461940 0.555570
v -0.768177 0.513280 0.382683
v -0.815493 0.544895 0.195090
v -0.831468 0.555570 0.000000
v -0.815493 0.544895 -0.195090
v -0.768177 0.513280 -0.382683
v -0.691341 0.461940 -0.555570
v -0.587938 0.392847 -0.707107
v -0.461939 0.308658 -0.831470
v -0.318189 0.212607 -0.923880
v -0.162212 0.108386 -0.980785
v -0.137950 0.137950 0.980785
v -0.270598 0.270598 0.923880
v -0.392847 0.392847 0.831470
v -0.500000 0.500000 0.707107
v -0.587937 0.587938 0.555570
v -0.653281 0.653281 0.382683
v -0.693519 0.693520 0.195090
v -0.707106 0.707106 0.000000
v -0.693519 0.693520 -0.195090
v -0.653281 0.653281 -0.382683
v -0.587937 0.587938 -0.555570
v -0.500000 0.500000 -0.707107
v -0.392847 0.392847 -0.831470
v -0.270598 0.270598 -0.923880
v -0.137950 0.137950 -0.980785
v -0.108386 0.162212 0.980785
v -0.212607 0.318190 0.923880
v -0.308658 0.461939 0.831470
v -0.392847 0.587938 0.707107
v -0.461939 0.691341 0.555570
v -0.513280 0.768177 0.382683
v -0.544895 0.815493 0.195090
v -0.555569 0.831469 0.000000
v -0.544895 0.815493 -0.195090
v -0.513280 0.768177 -0.382683
v -0.461939 0.691341 -0.555570
v -0.392847 0.587938 -0.707107
v -0.308658 0.461939 -0.831470
v -0.212607 0.318190 -0.923880
v -0.108386 0.162212 -0.980785
v -0.074658 0.180240 0.980785
v -0.146446 0.353553 0.923880
v -0.212607 0.513279 0.831470
v -0.270598 0.653281 0.707107
v -0.318189 0.768177 0.555570
v -0.353553 0.853553 0.382683
v -0.375330 0.906127 0.195090
v -0.382683 0.923879 0.000000
v -0.375330 0.906127 -0.195090
v -0.353553 0.853553 -0.382683
v -0.318189 0.768177 -0.555570
v -0.270598 0.653281 -0.707107
v -0.212607 0.513279 -0.831470
v -0.146446 0.353553 -0.923880
v -0.074658 0.180240 -0.980785
v -0.038060 0.191342 0.980785
v -0.074658 0.375330 0.923880
v -0.108386 0.544895 0.831470
v -0.137950 0.693520 0.707107
v -0.162211 0.815493 0.555570
v -0.180240 0.906127 0.382683
v -0.191341 0.961939 0.195090
v -0.195090 0.980784 0.000000
v -0.191341 0.961939 -0.195090
v -0.180240 0.906127 -0.382683
v -0.162211 0.815493 -0.555570
v -0.137950 0.693520 -0.707107
v -0.108386 0.544895 -0.831470
v -0.074658 0.375330 -0.923880
v -0.038060 0.191342 -0.980785
v 0.000000 0.195090 0.980785
v 0.000000 0.382683 0.923880
v 0.000000 0.707107 0.707107
v 0.000000 0.923879 0.382683
v 0.000000 0.923879 -0.382683
v 0.000000 0.707107 -0.707107
v 0.000000 0.555570 -0.831470
v 0.000000 0.382683 -0.923880
v 0.000000 0.195090 -0.980785
vn 0.0865 0.8786 0.4696
vn 0.0464 0.4709 -0.8810
vn 0.0938 0.9527 0.2890
vn 0.0286 0.2902 -0.9565
vn 0.0975 0.9904 0.0975
vn 0.0097 0.0980 0.9951
vn 0.0097 0.0980 -0.9951
vn 0.0975 0.9904 -0.0976
vn 0.0286 0.2902 0.9565
vn 0.0938 0.9527 -0.2890
vn 0.0464 0.4709 0.8810
vn 0.0865 0.8786 -0.4696
vn 0.0624 0.6332 0.7715
vn 0.0759 0.7708 -0.6326
vn 0.0759 0.7708 0.6326
vn 0.0624 0.6332 -0.7715
vn 0.2248 0.7412 0.6326
vn 0.1847 0.6088 -0.7715
vn 0.2563 0.8448 0.4696
vn 0.1374 0.4528 -0.8810
vn 0.2779 0.9161 0.2890
vn 0.0846 0.2790 -0.9565
vn 0.2889 0.9524 0.0976
vn 0.0286 0.0942 0.9951
vn 0.0286 0.0942 -0.9951
vn 0.2889 0.9524 -0.0976
vn 0.0846 0.2790 0.9565
vn 0.2779 0.9161 -0.2890
vn 0.1374 0.4528 0.8810
vn 0.2563 0.8448 -0.4696
vn 0.1847 0.6088 0.7715
vn 0.2248 0.7412 -0.6326
vn 0.4691 0.8777 -0.0975
vn 0.1374 0.2571 0.9565
vn 0.4513 0.8443 -0.2890
vn 0.2231 0.4173 0.8810
vn 0.4162 0.7786 -0.4696
vn 0.2999 0.5611 0.7715
vn 0.3651 0.6831 -0.6326
vn 0.3651 0.6831 0.6326
vn 0.2999 0.5611 -0.7715
vn 0.4162 0.7786 0.4696
vn 0.2230 0.4173 -0.8810
vn 0.4513 0.8443 0.2890
vn 0.1374 0.2571 -0.9565
vn 0.4691 0.8777 0.0975
vn 0.0464 0.0869 0.9951
vn 0.0464 0.0869 -0.9951
vn 0.4036 0.4918 -0.7715
vn 0.5601 0.6825 0.4696
vn 0.3002 0.3658 -0.8810
vn 0.6073 0.7400 0.2890
vn 0.1850 0.2254 -0.9565
vn 0.6314 0.7693 0.0975
vn 0.0625 0.0761 0.9951
vn 0.0625 0.0761 -0.9951
vn 0.6314 0.7693 -0.0975
vn 0.1850 0.2254 0.9565
vn 0.6073 0.7400 -0.2890
vn 0.3002 0.3658 0.8810
vn 0.5601 0.6825 -0.4696
vn 0.4036 0.4918 0.7715
vn 0.4913 0.5987 -0.6326
vn 0.4913 0.5987 0.6326
vn 0.2254 0.1850 0.9565
vn 0.7400 0.6073 -0.2890
vn 0.3658 0.3002 0.8810
vn 0.6825 0.5601 -0.4696
vn 0.4918 0.4036 0.7715
vn 0.5987 0.4913 -0.6326
vn 0.5987 0.4913 0.6326
vn 0.4918 0.4036 -0.7715
vn 0.6825 0.5601 0.4696
vn 0.3658 0.3002 -0.8810
vn 0.7400 0.6073 0.2890
vn 0.2254 0.1850 -0.9566
vn 0.7693 0.6314 0.0975
vn 0.0761 0.0625 0.9951
vn 0.0761 0.0625 -0.9951
vn 0.7693 0.6314 -0.0975
vn 0.7786 0.4162 0.4696
vn 0.4173 0.2230 -0.8810
vn 0.8443 0.4513 0.2890
vn 0.2571 0.1374 -0.9565
vn 0.8777 0.4691 0.0975
vn 0.0869 0.0464 0.9951
vn 0.0869 0.0464 -0.9951
vn 0.8777 0.4691 -0.0975
vn 0.2571 0.1374 0.9565
vn 0.8443 0.4513 -0.2890
vn 0.4173 0.2230 0.8810
vn 0.7786 0.4162 -0.4696
vn 0.5611 0.2999 0.7715
vn 0.6831 0.3651 -0.6326
vn 0.6831 0.3651 0.6326
vn 0.5611 0.2999 -0.7715
vn 0.9161 0.2779 -0.2890
vn 0.4528 0.1374 0.8810
vn 0.8448 0.2563 -0.4696
vn 0.6088 0.1847 0.7715
vn 0.7412 0.2248 -0.6326
vn 0.7412 0.2248 0.6326
vn 0.6088 0.1847 -0.7715
vn 0.8448 0.2563 0.4696
vn 0.4528 0.1374 -0.8810
vn 0.9161 0.2779 0.2890
vn 0.2790 0.0846 -0.9565
vn 0.9524 0.2889 0.0975
vn 0.0942 0.0286 0.9951
vn 0.0942 0.0286 -0.9951
vn 0.9524 0.2889 -0.0975
vn 0.2790 0.0846 0.9565
vn 0.4709 0.0464 -0.8810
vn 0.9527 0.0938 0.2890
vn 0.2902 0.0286 -0.9565
vn 0.9904 0.0975 0.0975
vn 0.0980 0.0097 0.9951
vn 0.0980 0.0097 -0.9951
vn 0.9904 0.0975 -0.0975
vn 0.2902 0.0286 0.9565
vn 0.9527 0.0938 -0.2890
vn 0.4709 0.0464 0.8810
vn 0.8786 0.0865 -0.4696
vn 0.6332 0.0624 0.7715
vn 0.7708 0.0759 -0.6326
vn 0.7708 0.0759 0.6326
vn 0.6332 0.0624 -0.7715
vn 0.8786 0.0865 0.4696
vn 0.8786 -0.0865 -0.4696
vn 0.6332 -0.0624 0.7715
vn 0.7708 -0.0759 -0.6326
vn 0.7708 -0.0759 0.6326
vn 0.6332 -0.0624 -0.7715
vn 0.8786 -0.0865 0.4696
vn 0.4709 -0.0464 -0.8810
vn 0.9527 -0.0938 0.2890
vn 0.2902 -0.0286 -0.9565
vn 0.9904 -0.0976 0.0975
vn 0.0980 -0.0097 0.9951
vn 0.0980 -0.0097 -0.9951
vn 0.9904 -0.0976 -0.0975
vn 0.2902 -0.0286 0.9565
vn 0.9527 -0.0938 -0.2890
vn 0.4709 -0.0464 0.8810
vn 0.2790 -0.0846 -0.9565
vn 0.9524 -0.2889 0.0975
vn 0.0942 -0.0286 0.9951
vn 0.0942 -0.0286 -0.9951
vn 0.9524 -0.2889 -0.0975
vn 0.2790 -0.0846 0.9565
vn 0.9161 -0.2779 -0.2890
vn 0.4528 -0.1374 0.8810
vn 0.8448 -0.2563 -0.4696
vn 0.6088 -0.1847 0.7715
vn 0.7412 -0.2248 -0.6326
vn 0.7412 -0.2248 0.6326
vn 0.6088 -0.1847 -0.7715
vn 0.8448 -0.2563 0.4696
vn 0.4528 -0.1374 -0.8810
vn 0.9161 -0.2779 0.2890
vn 0.5611 -0.2999 0.7715
vn 0.6831 -0.3651 -0.6326
vn 0.6831 -0.3651 0.6326
vn 0.5611 -0.2999 -0.7715
vn 0.7786 -0.4162 0.4696
vn 0.4173 -0.2230 -0.8810
vn 0.8443 -0.4513 0.2890
vn 0.2571 -0.1374 -0.9565
vn 0.8777 -0.4691 0.0975
vn 0.0869 -0.0464 0.9951
vn 0.0869 -0.0464 -0.9951
vn 0.8777 -0.4691 -0.0975
vn 0.2571 -0.1374 0.9565
vn 0.8443 -0.4513 -0.2890
vn 0.4173 -0.2231 0.8810
vn 0.7786 -0.4162 -0.4696
vn 0.7693 -0.6314 0.0975
vn 0.0761 -0.0625 0.9951
vn 0.0761 -0.0625 -0.9951
vn 0.7693 -0.6314 -0.0975
vn 0.2254 -0.1850 0.9565
vn 0.7400 -0.6073 -0.2890
vn 0.3658 -0.3002 0.8810
vn 0.6825 -0.5601 -0.4696
vn 0.4918 -0.4036 0.7715
vn 0.5987 -0.4913 -0.6326
vn 0.5987 -0.4913 0.6326
vn 0.4918 -0.4036 -0.7715
vn 0.6825 -0.5601 0.4696
vn 0.3658 -0.3002 -0.8810
vn 0.7400 -0.6073 0.2890
vn 0.2254 -0.1850 -0.9565
vn 0.4913 -0.5987 -0.6326
vn 0.4913 -0.5987 0.6326
vn 0.4036 -0.4918 -0.7715
vn 0.5601 -0.6825 0.4696
vn 0.3002 -0.3658 -0.8810
vn 0.6073 -0.7400 0.2890
vn 0.1850 -0.2254 -0.9565
vn 0.6314 -0.7693 0.0975
vn 0.0625 -0.0761 0.9951
vn 0.0625 -0.0761 -0.9951
vn 0.6314 -0.7693 -0.0975
vn 0.1850 -0.2254 0.9565
vn 0.6073 -0.7400 -0.2890
vn 0.3002 -0.3658 0.8810
vn 0.5601 -0.6825 -0.4696
vn 0.4036 -0.4918 0.7715
vn 0.0464 -0.0869 0.9951
vn 0.0464 -0.0869 -0.9951
vn 0.4691 -0.8777 -0.0975
vn 0.1374 -0.2571 0.9565
vn 0.4513 -0.8443 -0.2890
vn 0.2230 -0.4173 0.8810
vn 0.4162 -0.7786 -0.4696
vn 0.2999 -0.5611 0.7715
vn 0.3651 -0.6831 -0.6326
vn 0.3651 -0.6831 0.6326
vn 0.2999 -0.5611 -0.7715
vn 0.4162 -0.7786 0.4696
vn 0.2230 -0.4173 -0.8810
vn 0.4513 -0.8443 0.2890
vn 0.1374 -0.2571 -0.9565
vn 0.4691 -0.8777 0.0975
vn 0.2248 -0.7412 0.6326
vn 0.1847 -0.6088 -0.7715
vn 0.2563 -0.8448 0.4696
vn 0.1374 -0.4528 -0.8810
vn 0.2779 -0.9161 0.2890
vn 0.0846 -0.2790 -0.9565
vn 0.2889 -0.9524 0.0975
vn 0.0286 -0.0942 0.9951
vn 0.0286 -0.0942 -0.9951
vn 0.2889 -0.9524 -0.0975
vn 0.0846 -0.2790 0.9565
vn 0.2779 -0.9161 -0.2890
vn 0.1374 -0.4528 0.8810
vn 0.2563 -0.8448 -0.4696
vn 0.1847 -0.6088 0.7715
vn 0.2248 -0.7412 -0.6326
vn 0.0975 -0.9904 -0.0975
vn 0.0286 -0.2902 0.9565
vn 0.0938 -0.9527 -0.2890
vn 0.0464 -0.4709 0.8810
vn 0.0865 -0.8786 -0.4696
vn 0.0624 -0.6332 0.7715
vn 0.0759 -0.7708 -0.6326
vn 0.0759 -0.7708 0.6326
vn 0.0624 -0.6332 -0.7715
vn 0.0865 -0.8786 0.4696
vn 0.0464 -0.4709 -0.8810
vn 0.0938 -0.9527 0.2890
vn 0.0286 -0.2902 -0.9565
vn 0.0975 -0.9904 0.0975
vn 0.0097 -0.0980 0.9951
vn 0.0097 -0.0980 -0.9951
vn -0.0624 -0.6332 -0.7715
vn -0.0865 -0.8786 0.4696
vn -0.0464 -0.4709 -0.8810
vn -0.0938 -0.9527 0.2890
vn -0.0286 -0.2902 -0.9565
vn -0.0976 -0.9904 0.0975
vn -0.0097 -0.0980 0.9951
vn -0.0097 -0.0980 -0.9951
vn -0.0975 -0.9904 -0.0975
vn -0.0286 -0.2902 0.9565
vn -0.0938 -0.9527 -0.2890
vn -0.0464 -0.4709 0.8810
vn -0.0865 -0.8786 -0.4696
vn -0.0624 -0.6332 0.7715
vn -0.0759 -0.7708 -0.6326
vn -0.0759 -0.7708 0.6326
vn -0.2779 -0.9161 -0.2890
vn -0.1374 -0.4528 0.8810
vn -0.2563 -0.8448 -0.4696
vn -0.1847 -0.6088 0.7715
vn -0.2248 -0.7412 -0.6326
vn -0.2248 -0.7412 0.6326
vn -0.1847 -0.6088 -0.7715
vn -0.2563 -0.8448 0.4696
vn -0.1374 -0.4528 -0.8810
vn -0.2779 -0.9161 0.2890
vn -0.0846 -0.2790 -0.9565
vn -0.2889 -0.9524 0.0975
vn -0.0286 -0.0942 0.9951
vn -0.0286 -0.0942 -0.9951
vn -0.2889 -0.9524 -0.0975
vn -0.0846 -0.2790 0.9565
vn -0.2230 -0.4173 -0.8810
vn -0.4513 -0.8443 0.2890
vn -0.1374 -0.2571 -0.9565
vn -0.4691 -0.8777 0.0975
vn -0.0464 -0.0869 0.9951
vn -0.0464 -0.0869 -0.9951
vn -0.4691 -0.8777 -0.0975
vn -0.1374 -0.2571 0.9565
vn -0.4513 -0.8443 -0.2890
vn -0.2230 -0.4173 0.8810
vn -0.4162 -0.7786 -0.4696
vn -0.2999 -0.5611 0.7715
vn -0.3651 -0.6831 -0.6326
vn -0.3651 -0.6831 0.6326
vn -0.2999 -0.5611 -0.7715
vn -0.4162 -0.7786 0.4696
vn -0.3002 -0.3658 0.8810
vn -0.5601 -0.6825 -0.4696
vn -0.4036 -0.4918 0.7715
vn -0.4913 -0.5987 -0.6326
vn -0.4913 -0.5987 0.6326
vn -0.4036 -0.4918 -0.7715
vn -0.5601 -0.6825 0.4696
vn -0.3002 -0.3658 -0.8810
vn -0.6073 -0.7400 0.2890
vn -0.1850 -0.2254 -0.9565
vn -0.6314 -0.7693 0.0975
vn -0.0625 -0.0761 0.9951
vn -0.0625 -0.0761 -0.9951
vn -0.6314 -0.7693 -0.0975
vn -0.1850 -0.2254 0.9565
vn -0.6073 -0.7400 -0.2890
vn -0.7400 -0.6073 0.2890
vn -0.2254 -0.1850 -0.9566
vn -0.7693 -0.6314 0.0975
vn -0.0761 -0.0625 0.9951
vn -0.0761 -0.0625 -0.9951
vn -0.7693 -0.6314 -0.0975
vn -0.2254 -0.1850 0.9565
vn -0.7400 -0.6073 -0.2890
vn -0.3658 -0.3002 0.8810
vn -0.6825 -0.5601 -0.4696
vn -0.4918 -0.4036 0.7715
vn -0.5987 -0.4913 -0.6326
vn -0.5987 -0.4913 0.6326
vn -0.4918 -0.4036 -0.7715
vn -0.6825 -0.5601 0.4696
vn -0.3658 -0.3002 -0.8810
vn -0.7786 -0.4162 -0.4696
vn -0.5611 -0.2999 0.7715
vn -0.6831 -0.3651 -0.6326
vn -0.6831 -0.3651 0.6326
vn -0.5611 -0.2999 -0.7715
vn -0.7786 -0.4162 0.4696
vn -0.4173 -0.2231 -0.8810
vn -0.8443 -0.4513 0.2890
vn -0.2571 -0.1374 -0.9565
vn -0.8777 -0.4691 0.0975
vn -0.0869 -0.0464 0.9951
vn -0.0869 -0.0464 -0.9951
vn -0.8777 -0.4691 -0.0975
vn -0.2571 -0.1374 0.9565
vn -0.8443 -0.4513 -0.2890
vn -0.4173 -0.2230 0.8810
vn -0.2790 -0.0846 -0.9565
vn -0.9524 -0.2889 0.0975
vn -0.0942 -0.0286 0.9951
vn -0.0942 -0.0286 -0.9951
vn -0.9524 -0.2889 -0.0975
vn -0.2790 -0.0846 0.9565
vn -0.9161 -0.2779 -0.2890
vn -0.4528 -0.1374 0.8810
vn -0.8448 -0.2563 -0.4696
vn -0.6088 -0.1847 0.7715
vn -0.7412 -0.2248 -0.6326
vn -0.7412 -0.2248 0.6326
vn -0.6088 -0.1847 -0.7715
vn -0.8448 -0.2563 0.4696
vn -0.4528 -0.1374 -0.8810
vn -0.9161 -0.2779 0.2890
vn -0.6332 -0.0624 0.7715
vn -0.7708 -0.0759 -0.6326
vn -0.7708 -0.0759 0.6326
vn -0.6332 -0.0624 -0.7715
vn -0.8786 -0.0865 0.4696
vn -0.4709 -0.0464 -0.8810
vn -0.9527 -0.0938 0.2890
vn -0.2902 -0.0286 -0.9565
vn -0.9904 -0.0975 0.0975
vn -0.0980 -0.0097 0.9951
vn -0.0980 -0.0097 -0.9951
vn -0.9904 -0.0976 -0.0975
vn -0.2902 -0.0286 0.9565
vn -0.9527 -0.0938 -0.2890
vn -0.4709 -0.0464 0.8810
vn -0.8786 -0.0865 -0.4696
vn -0.9904 0.0975 0.0975
vn -0.0980 0.0097 0.9951
vn -0.0980 0.0097 -0.9951
vn -0.9904 0.0976 -0.0975
vn -0.2902 0.0286 0.9565
vn -0.9527 0.0938 -0.2890
vn -0.4709 0.0464 0.8810
vn -0.8786 0.0865 -0.4696
vn -0.6332 0.0624 0.7715
vn -0.7708 0.0759 -0.6326
vn -0.7708 0.0759 0.6326
vn -0.6332 0.0624 -0.7715
vn -0.8786 0.0865 0.4696
vn -0.4709 0.0464 -0.8810
vn -0.9527 0.0938 0.2890
vn -0.2902 0.0286 -0.9565
vn -0.7412 0.2248 -0.6326
vn -0.7412 0.2248 0.6326
vn -0.6088 0.1847 -0.7715
vn -0.8448 0.2563 0.4696
vn -0.4528 0.1374 -0.8810
vn -0.9161 0.2779 0.2890
vn -0.2790 0.0846 -0.9565
vn -0.9524 0.2889 0.0975
vn -0.0942 0.0286 0.9951
vn -0.0942 0.0286 -0.9951
vn -0.9524 0.2889 -0.0975
vn -0.2790 0.0846 0.9565
vn -0.9161 0.2779 -0.2890
vn -0.4528 0.1374 0.8810
vn -0.8448 0.2563 -0.4696
vn -0.6088 0.1847 0.7715
vn -0.0869 0.0464 -0.9951
vn -0.8777 0.4691 -0.0975
vn -0.2571 0.1374 0.9565
vn -0.8443 0.4513 -0.2890
vn -0.4173 0.2231 0.8810
vn -0.7786 0.4162 -0.4696
vn -0.5611 0.2999 0.7715
vn -0.6831 0.3651 -0.6326
vn -0.6831 0.3651 0.6326
vn -0.5611 0.2999 -0.7715
vn -0.7786 0.4162 0.4696
vn -0.4173 0.2231 -0.8810
vn -0.8443 0.4513 0.2890
vn -0.2571 0.1374 -0.9565
vn -0.8777 0.4691 0.0975
vn -0.0869 0.0464 0.9951
vn -0.4918 0.4036 -0.7715
vn -0.6825 0.5601 0.4696
vn -0.3658 0.3002 -0.8810
vn -0.7400 0.6073 0.2890
vn -0.2254 0.1850 -0.9565
vn -0.7693 0.6314 0.0975
vn -0.0761 0.0625 0.9951
vn -0.0761 0.0625 -0.9951
vn -0.7693 0.6314 -0.0975
vn -0.2254 0.1850 0.9565
vn -0.7400 0.6073 -0.2890
vn -0.3658 0.3002 0.8810
vn -0.6825 0.5601 -0.4696
vn -0.4918 0.4036 0.7715
vn -0.5987 0.4913 -0.6326
vn -0.5987 0.4913 0.6326
vn -0.1850 0.2254 0.9565
vn -0.6073 0.7400 -0.2890
vn -0.3002 0.3658 0.8810
vn -0.5601 0.6825 -0.4696
vn -0.4036 0.4918 0.7715
vn -0.4913 0.5987 -0.6326
vn -0.4913 0.5987 0.6326
vn -0.4036 0.4918 -0.7715
vn -0.5601 0.6825 0.4696
vn -0.3002 0.3658 -0.8810
vn -0.6073 0.7400 0.2890
vn -0.1850 0.2254 -0.9565
vn -0.6314 0.7693 0.0975
vn -0.0625 0.0761 0.9951
vn -0.0625 0.0761 -0.9951
vn -0.6314 0.7693 -0.0975
vn -0.4162 0.7786 0.4696
vn -0.2230 0.4173 -0.8810
vn -0.4513 0.8443 0.2890
vn -0.1374 0.2571 -0.9565
vn -0.4691 0.8777 0.0975
vn -0.0464 0.0869 0.9951
vn -0.0464 0.0869 -0.9951
vn -0.4691 0.8777 -0.0975
vn -0.1374 0.2571 0.9565
vn -0.4513 0.8443 -0.2890
vn -0.2230 0.4173 0.8810
vn -0.4162 0.7786 -0.4696
vn -0.2999 0.5611 0.7715
vn -0.3651 0.6831 -0.6326
vn -0.3651 0.6831 0.6326
vn -0.2999 0.5611 -0.7715
vn -0.2779 0.9161 -0.2890
vn -0.1374 0.4528 0.8810
vn -0.2563 0.8448 -0.4696
vn -0.1847 0.6088 0.7715
vn -0.2248 0.7412 -0.6326
vn -0.2248 0.7412 0.6326
vn -0.1847 0.6088 -0.7715
vn -0.2563 0.8448 0.4696
vn -0.1374 0.4528 -0.8810
vn -0.2779 0.9161 0.2890
vn -0.0846 0.2790 -0.9565
vn -0.2889 0.9524 0.0975
vn -0.0286 0.0942 0.9951
vn -0.0286 0.0942 -0.9951
vn -0.2889 0.9524 -0.0975
vn -0.0846 0.2790 0.9565
vn -0.0464 0.4709 -0.8810
vn -0.0938 0.9527 0.2890
vn -0.0286 0.2902 -0.9565
vn -0.0976 0.9904 0.0975
vn -0.0097 0.0980 0.9951
vn -0.0097 0.0980 -0.9951
vn -0.0976 0.9904 -0.0975
vn -0.0286 0.2902 0.9565
vn -0.0938 0.9527 -0.2890
vn -0.0464 0.4709 0.8810
vn -0.0865 0.8786 -0.4696
vn -0.0624 0.6332 0.7715
vn -0.0759 0.7708 -0.6326
vn -0.0759 0.7708 0.6326
vn -0.0624 0.6332 -0.7715
vn -0.0865 0.8786 0.4696
vn 0.0975 0.9904 0.0976
vn 0.0975 0.9904 -0.0975
vn 0.2230 0.4173 0.8810
vn 0.2231 0.4173 -0.8810
vn 0.2254 0.1850 -0.9565
vn 0.4173 -0.2231 -0.8810
vn 0.4173 -0.2230 0.8810
vn 0.2231 -0.4173 -0.8810
vn -0.0975 -0.9904 0.0975
vn -0.0976 -0.9904 -0.0975
vn -0.2231 -0.4173 -0.8810
vn -0.2231 -0.4173 0.8810
vn -0.2254 -0.1850 -0.9565
vn -0.4173 -0.2230 -0.8810
vn -0.9904 -0.0976 0.0975
vn -0.9904 -0.0975 -0.0975
vn -0.9904 0.0976 0.0975
vn -0.9904 0.0975 -0.0975
vt 0.750000 0.625000
vt 0.718750 0.687500
vt 0.718750 0.625000
vt 0.750000 0.187500
vt 0.718750 0.125000
vt 0.750000 0.125000
vt 0.750000 0.562500
vt 0.718750 0.562500
vt 0.718750 0.062500
vt 0.750000 0.062500
vt 0.718750 0.500000
vt 0.750000 0.500000
vt 0.750000 0.937500
vt 0.734375 1.000000
vt 0.718750 0.937500
vt 0.734375 0.000000
vt 0.718750 0.437500
vt 0.750000 0.437500
vt 0.750000 0.875000
vt 0.718750 0.875000
vt 0.718750 0.375000
vt 0.750000 0.375000
vt 0.750000 0.812500
vt 0.718750 0.812500
vt 0.718750 0.312500
vt 0.750000 0.312500
vt 0.750000 0.750000
vt 0.718750 0.750000
vt 0.718750 0.250000
vt 0.750000 0.250000
vt 0.750000 0.687500
vt 0.718750 0.187500
vt 0.687500 0.687500
vt 0.687500 0.250000
vt 0.687500 0.187500
vt 0.687500 0.625000
vt 0.687500 0.125000
vt 0.687500 0.562500
vt 0.687500 0.062500
vt 0.687500 0.500000
vt 0.703125 1.000000
vt 0.687500 0.937500
vt 0.703125 0.000000
vt 0.687500 0.437500
vt 0.687500 0.875000
vt 0.687500 0.375000
vt 0.687500 0.812500
vt 0.687500 0.312500
vt 0.687500 0.750000
vt 0.656250 0.500000
vt 0.656250 0.437500
vt 0.656250 0.875000
vt 0.656250 0.375000
vt 0.656250 0.812500
vt 0.656250 0.312500
vt 0.656250 0.750000
vt 0.656250 0.250000
vt 0.656250 0.687500
vt 0.656250 0.187500
vt 0.656250 0.625000
vt 0.656250 0.125000
vt 0.656250 0.562500
vt 0.656250 0.062500
vt 0.671875 1.000000
vt 0.656250 0.937500
vt 0.671875 0.000000
vt 0.625000 0.187500
vt 0.625000 0.625000
vt 0.625000 0.125000
vt 0.625000 0.562500
vt 0.625000 0.062500
vt 0.625000 0.500000
vt 0.640625 1.000000
vt 0.625000 0.937500
vt 0.640625 0.000000
vt 0.625000 0.437500
vt 0.625000 0.875000
vt 0.625000 0.375000
vt 0.625000 0.812500
vt 0.625000 0.312500
vt 0.625000 0.750000
vt 0.625000 0.250000
vt 0.625000 0.687500
vt 0.593750 0.875000
vt 0.593750 0.375000
vt 0.593750 0.812500
vt 0.593750 0.312500
vt 0.593750 0.750000
vt 0.593750 0.250000
vt 0.593750 0.687500
vt 0.593750 0.187500
vt 0.593750 0.625000
vt 0.593750 0.125000
vt 0.593750 0.562500
vt 0.593750 0.062500
vt 0.593750 0.500000
vt 0.609375 1.000000
vt 0.593750 0.937500
vt 0.609375 0.000000
vt 0.593750 0.437500
vt 0.562500 0.625000
vt 0.562500 0.125000
vt 0.562500 0.562500
vt 0.562500 0.062500
vt 0.562500 0.500000
vt 0.578125 1.000000
vt 0.562500 0.937500
vt 0.578125 0.000000
vt 0.562500 0.437500
vt 0.562500 0.875000
vt 0.562500 0.375000
vt 0.562500 0.812500
vt 0.562500 0.312500
vt 0.562500 0.750000
vt 0.562500 0.250000
vt 0.562500 0.687500
vt 0.562500 0.187500
vt 0.531250 0.375000
vt 0.531250 0.812500
vt 0.531250 0.312500
vt 0.531250 0.750000
vt 0.531250 0.250000
vt 0.531250 0.687500
vt 0.531250 0.187500
vt 0.531250 0.625000
vt 0.531250 0.125000
vt 0.531250 0.562500
vt 0.531250 0.062500
vt 0.531250 0.500000
vt 0.546875 1.000000
vt 0.531250 0.937500
vt 0.546875 0.000000
vt 0.531250 0.437500
vt 0.531250 0.875000
vt 0.500000 0.125000
vt 0.500000 0.625000
vt 0.500000 0.562500
vt 0.500000 0.062500
vt 0.500000 0.500000
vt 0.515625 1.000000
vt 0.500000 0.937500
vt 0.515625 0.000000
vt 0.500000 0.437500
vt 0.500000 0.875000
vt 0.500000 0.375000
vt 0.500000 0.812500
vt 0.500000 0.312500
vt 0.500000 0.750000
vt 0.500000 0.250000
vt 0.500000 0.687500
vt 0.500000 0.187500
vt 0.468750 0.375000
vt 0.468750 0.312500
vt 0.468750 0.750000
vt 0.468750 0.250000
vt 0.468750 0.687500
vt 0.468750 0.187500
vt 0.468750 0.625000
vt 0.468750 0.125000
vt 0.468750 0.562500
vt 0.468750 0.062500
vt 0.468750 0.500000
vt 0.484375 1.000000
vt 0.468750 0.937500
vt 0.484375 0.000000
vt 0.468750 0.437500
vt 0.468750 0.875000
vt 0.468750 0.812500
vt 0.437500 0.125000
vt 0.437500 0.062500
vt 0.437500 0.562500
vt 0.437500 0.500000
vt 0.453125 1.000000
vt 0.437500 0.937500
vt 0.453125 0.000000
vt 0.437500 0.437500
vt 0.437500 0.875000
vt 0.437500 0.375000
vt 0.437500 0.812500
vt 0.437500 0.312500
vt 0.437500 0.750000
vt 0.437500 0.250000
vt 0.437500 0.687500
vt 0.437500 0.187500
vt 0.437500 0.625000
vt 0.406250 0.750000
vt 0.406250 0.250000
vt 0.406250 0.687500
vt 0.406250 0.187500
vt 0.406250 0.625000
vt 0.406250 0.125000
vt 0.406250 0.562500
vt 0.406250 0.062500
vt 0.406250 0.500000
vt 0.421875 1.000000
vt 0.406250 0.937500
vt 0.421875 0.000000
vt 0.406250 0.437500
vt 0.406250 0.875000
vt 0.406250 0.375000
vt 0.406250 0.812500
vt 0.406250 0.312500
vt 0.375000 0.562500
vt 0.375000 0.500000
vt 0.390625 1.000000
vt 0.375000 0.937500
vt 0.390625 0.000000
vt 0.375000 0.062500
vt 0.375000 0.437500
vt 0.375000 0.875000
vt 0.375000 0.375000
vt 0.375000 0.812500
vt 0.375000 0.312500
vt 0.375000 0.750000
vt 0.375000 0.250000
vt 0.375000 0.687500
vt 0.375000 0.187500
vt 0.375000 0.625000
vt 0.375000 0.125000
vt 0.343750 0.250000
vt 0.343750 0.750000
vt 0.343750 0.687500
vt 0.343750 0.187500
vt 0.343750 0.625000
vt 0.343750 0.125000
vt 0.343750 0.562500
vt 0.343750 0.062500
vt 0.343750 0.500000
vt 0.359375 1.000000
vt 0.343750 0.937500
vt 0.359375 0.000000
vt 0.343750 0.437500
vt 0.343750 0.875000
vt 0.343750 0.375000
vt 0.343750 0.812500
vt 0.343750 0.312500
vt 0.328125 1.000000
vt 0.312500 0.937500
vt 0.328125 0.000000
vt 0.312500 0.062500
vt 0.312500 0.437500
vt 0.312500 0.875000
vt 0.312500 0.375000
vt 0.312500 0.812500
vt 0.312500 0.312500
vt 0.312500 0.750000
vt 0.312500 0.250000
vt 0.312500 0.687500
vt 0.312500 0.187500
vt 0.312500 0.625000
vt 0.312500 0.125000
vt 0.312500 0.562500
vt 0.312500 0.500000
vt 0.281250 0.750000
vt 0.281250 0.687500
vt 0.281250 0.250000
vt 0.281250 0.187500
vt 0.281250 0.625000
vt 0.281250 0.125000
vt 0.281250 0.562500
vt 0.281250 0.062500
vt 0.281250 0.500000
vt 0.296875 1.000000
vt 0.281250 0.937500
vt 0.296875 0.000000
vt 0.281250 0.437500
vt 0.281250 0.875000
vt 0.281250 0.375000
vt 0.281250 0.812500
vt 0.281250 0.312500
vt 0.250000 0.437500
vt 0.250000 0.875000
vt 0.250000 0.375000
vt 0.250000 0.812500
vt 0.250000 0.312500
vt 0.250000 0.750000
vt 0.250000 0.250000
vt 0.250000 0.687500
vt 0.250000 0.187500
vt 0.250000 0.625000
vt 0.250000 0.125000
vt 0.250000 0.562500
vt 0.250000 0.062500
vt 0.250000 0.500000
vt 0.265625 1.000000
vt 0.250000 0.937500
vt 0.265625 0.000000
vt 0.218750 0.250000
vt 0.218750 0.187500
vt 0.218750 0.625000
vt 0.218750 0.125000
vt 0.218750 0.562500
vt 0.218750 0.062500
vt 0.218750 0.500000
vt 0.234375 1.000000
vt 0.218750 0.937500
vt 0.234375 0.000000
vt 0.218750 0.437500
vt 0.218750 0.875000
vt 0.218750 0.375000
vt 0.218750 0.812500
vt 0.218750 0.312500
vt 0.218750 0.750000
vt 0.218750 0.687500
vt 0.187500 0.375000
vt 0.187500 0.812500
vt 0.187500 0.312500
vt 0.187500 0.750000
vt 0.187500 0.250000
vt 0.187500 0.687500
vt 0.187500 0.187500
vt 0.187500 0.625000
vt 0.187500 0.125000
vt 0.187500 0.562500
vt 0.187500 0.062500
vt 0.187500 0.500000
vt 0.203125 1.000000
vt 0.187500 0.937500
vt 0.203125 0.000000
vt 0.187500 0.437500
vt 0.187500 0.875000
vt 0.156250 0.125000
vt 0.156250 0.625000
vt 0.156250 0.562500
vt 0.156250 0.062500
vt 0.156250 0.500000
vt 0.171875 1.000000
vt 0.156250 0.937500
vt 0.171875 0.000000
vt 0.156250 0.437500
vt 0.156250 0.875000
vt 0.156250 0.375000
vt 0.156250 0.812500
vt 0.156250 0.312500
vt 0.156250 0.750000
vt 0.156250 0.250000
vt 0.156250 0.687500
vt 0.156250 0.187500
vt 0.125000 0.812500
vt 0.125000 0.375000
vt 0.125000 0.312500
vt 0.125000 0.750000
vt 0.125000 0.250000
vt 0.125000 0.687500
vt 0.125000 0.187500
vt 0.125000 0.625000
vt 0.125000 0.125000
vt 0.125000 0.562500
vt 0.125000 0.062500
vt 0.125000 0.500000
vt 0.140625 1.000000
vt 0.125000 0.937500
vt 0.140625 0.000000
vt 0.125000 0.437500
vt 0.125000 0.875000
vt 0.093750 0.625000
vt 0.093750 0.562500
vt 0.093750 0.062500
vt 0.093750 0.500000
vt 0.109375 1.000000
vt 0.093750 0.937500
vt 0.109375 0.000000
vt 0.093750 0.437500
vt 0.093750 0.875000
vt 0.093750 0.375000
vt 0.093750 0.812500
vt 0.093750 0.312500
vt 0.093750 0.750000
vt 0.093750 0.250000
vt 0.093750 0.687500
vt 0.093750 0.187500
vt 0.093750 0.125000
vt 0.062500 0.375000
vt 0.062500 0.312500
vt 0.062500 0.750000
vt 0.062500 0.250000
vt 0.062500 0.687500
vt 0.062500 0.187500
vt 0.062500 0.625000
vt 0.062500 0.125000
vt 0.062500 0.562500
vt 0.062500 0.062500
vt 0.062500 0.500000
vt 0.078125 1.000000
vt 0.062500 0.937500
vt 0.078125 0.000000
vt 0.062500 0.437500
vt 0.062500 0.875000
vt 0.062500 0.812500
vt 0.031250 0.062500
vt 0.031250 0.562500
vt 0.031250 0.500000
vt 0.046875 1.000000
vt 0.031250 0.937500
vt 0.046875 0.000000
vt 0.031250 0.437500
vt 0.031250 0.875000
vt 0.031250 0.375000
vt 0.031250 0.812500
vt 0.031250 0.312500
vt 0.031250 0.750000
vt 0.031250 0.250000
vt 0.031250 0.687500
vt 0.031250 0.187500
vt 0.031250 0.625000
vt 0.031250 0.125000
vt 0.000000 0.750000
vt 0.000000 0.250000
vt 0.000000 0.687500
vt 0.000000 0.187500
vt 0.000000 0.625000
vt 0.000000 0.125000
vt 0.000000 0.562500
vt 0.000000 0.062500
vt 0.000000 0.500000
vt 0.015625 1.000000
vt 0.000000 0.937500
vt 0.015625 0.000000
vt 0.000000 0.437500
vt 0.000000 0.875000
vt 0.000000 0.375000
vt 0.000000 0.812500
vt 0.000000 0.312500
vt 1.000000 0.500000
vt 0.968750 0.562500
vt 0.968750 0.500000
vt 1.000000 0.937500
vt 0.984375 1.000000
vt 0.968750 0.937500
vt 0.984375 0.000000
vt 1.000000 0.062500
vt 0.968750 0.062500
vt 0.968750 0.437500
vt 1.000000 0.437500
vt 0.968750 0.875000
vt 1.000000 0.875000
vt 0.968750 0.375000
vt 1.000000 0.375000
vt 1.000000 0.812500
vt 0.968750 0.812500
vt 1.000000 0.312500
vt 0.968750 0.312500
vt 0.968750 0.750000
vt 1.000000 0.750000
vt 0.968750 0.250000
vt 1.000000 0.250000
vt 1.000000 0.687500
vt 0.968750 0.687500
vt 1.000000 0.187500
vt 0.968750 0.187500
vt 0.968750 0.625000
vt 1.000000 0.625000
vt 0.968750 0.125000
vt 1.000000 0.125000
vt 1.000000 0.562500
vt 0.937500 0.250000
vt 0.937500 0.750000
vt 0.937500 0.687500
vt 0.937500 0.187500
vt 0.937500 0.625000
vt 0.937500 0.125000
vt 0.937500 0.562500
vt 0.937500 0.062500
vt 0.937500 0.500000
vt 0.953125 1.000000
vt 0.937500 0.937500
vt 0.953125 0.000000
vt 0.937500 0.437500
vt 0.937500 0.875000
vt 0.937500 0.375000
vt 0.937500 0.812500
vt 0.937500 0.312500
vt 0.921875 0.000000
vt 0.906250 0.062500
vt 0.906250 0.437500
vt 0.906250 0.937500
vt 0.906250 0.875000
vt 0.906250 0.375000
vt 0.906250 0.812500
vt 0.906250 0.312500
vt 0.906250 0.750000
vt 0.906250 0.250000
vt 0.906250 0.687500
vt 0.906250 0.187500
vt 0.906250 0.625000
vt 0.906250 0.125000
vt 0.906250 0.562500
vt 0.906250 0.500000
vt 0.921875 1.000000
vt 0.875000 0.250000
vt 0.875000 0.187500
vt 0.875000 0.625000
vt 0.875000 0.125000
vt 0.875000 0.562500
vt 0.875000 0.062500
vt 0.875000 0.500000
vt 0.890625 1.000000
vt 0.875000 0.937500
vt 0.890625 0.000000
vt 0.875000 0.437500
vt 0.875000 0.875000
vt 0.875000 0.375000
vt 0.875000 0.812500
vt 0.875000 0.312500
vt 0.875000 0.750000
vt 0.875000 0.687500
vt 0.843750 0.875000
vt 0.843750 0.375000
vt 0.843750 0.812500
vt 0.843750 0.312500
vt 0.843750 0.750000
vt 0.843750 0.250000
vt 0.843750 0.687500
vt 0.843750 0.187500
vt 0.843750 0.625000
vt 0.843750 0.125000
vt 0.843750 0.562500
vt 0.843750 0.062500
vt 0.843750 0.500000
vt 0.859375 1.000000
vt 0.843750 0.937500
vt 0.859375 0.000000
vt 0.843750 0.437500
vt 0.812500 0.625000
vt 0.812500 0.125000
vt 0.812500 0.562500
vt 0.812500 0.062500
vt 0.812500 0.500000
vt 0.828125 1.000000
vt 0.812500 0.937500
vt 0.828125 0.000000
vt 0.812500 0.437500
vt 0.812500 0.875000
vt 0.812500 0.375000
vt 0.812500 0.812500
vt 0.812500 0.312500
vt 0.812500 0.750000
vt 0.812500 0.250000
vt 0.812500 0.687500
vt 0.812500 0.187500
vt 0.781250 0.375000
vt 0.781250 0.875000
vt 0.781250 0.812500
vt 0.781250 0.312500
vt 0.781250 0.750000
vt 0.781250 0.250000
vt 0.781250 0.687500
vt 0.781250 0.187500
vt 0.781250 0.625000
vt 0.781250 0.125000
vt 0.781250 0.562500
vt 0.781250 0.062500
vt 0.781250 0.500000
vt 0.796875 1.000000
vt 0.781250 0.937500
vt 0.796875 0.000000
vt 0.781250 0.437500
vt 0.765625 1.000000
vt 0.765625 0.000000
s 0
usemtl Material.001
f 477/1/1 13/2/1 14/3/1
f 480/4/2 22/5/2 481/6/2
f 4/7/3 14/3/3 15/8/3
f 481/6/4 23/9/4 482/10/4
f 4/7/5 16/11/5 5/12/5
f 474/13/6 1/14/6 9/15/6
f 8/16/7 482/10/7 23/9/7
f 5/12/8 17/17/8 6/18/8
f 475/19/9 9/15/9 10/20/9
f 6/18/10 18/21/10 478/22/10
f 2/23/11 10/20/11 11/24/11
f 478/22/12 19/25/12 7/26/12
f 476/27/13 11/24/13 12/28/13
f 7/26/14 20/29/14 479/30/14
f 3/31/15 12/28/15 13/2/15
f 479/30/16 21/32/16 480/4/16
f 12/28/17 28/33/17 13/2/17
f 21/32/18 35/34/18 36/35/18
f 13/2/19 29/36/19 14/3/19
f 22/5/20 36/35/20 37/37/20
f 15/8/21 29/36/21 30/38/21
f 22/5/22 38/39/22 23/9/22
f 15/8/23 31/40/23 16/11/23
f 9/15/24 1/41/24 24/42/24
f 8/43/25 23/9/25 38/39/25
f 16/11/26 32/44/26 17/17/26
f 9/15/27 25/45/27 10/20/27
f 17/17/28 33/46/28 18/21/28
f 10/20/29 26/47/29 11/24/29
f 18/21/30 34/48/30 19/25/30
f 11/24/31 27/49/31 12/28/31
f 19/25/32 35/34/32 20/29/32
f 32/44/33 46/50/33 47/51/33
f 24/42/34 40/52/34 25/45/34
f 32/44/35 48/53/35 33/46/35
f 25/45/36 41/54/36 26/47/36
f 34/48/37 48/53/37 49/55/37
f 26/47/38 42/56/38 27/49/38
f 35/34/39 49/55/39 50/57/39
f 27/49/40 43/58/40 28/33/40
f 36/35/41 50/57/41 51/59/41
f 28/33/42 44/60/42 29/36/42
f 36/35/43 52/61/43 37/37/43
f 29/36/44 45/62/44 30/38/44
f 37/37/45 53/63/45 38/39/45
f 30/38/46 46/50/46 31/40/46
f 24/42/47 1/64/47 39/65/47
f 8/66/48 38/39/48 53/63/48
f 50/57/49 66/67/49 51/59/49
f 43/58/50 59/68/50 44/60/50
f 51/59/51 67/69/51 52/61/51
f 45/62/52 59/68/52 60/70/52
f 52/61/53 68/71/53 53/63/53
f 46/50/54 60/70/54 61/72/54
f 39/65/55 1/73/55 54/74/55
f 8/75/56 53/63/56 68/71/56
f 46/50/57 62/76/57 47/51/57
f 39/65/58 55/77/58 40/52/58
f 47/51/59 63/78/59 48/53/59
f 40/52/60 56/79/60 41/54/60
f 49/55/61 63/78/61 64/80/61
f 41/54/62 57/81/62 42/56/62
f 49/55/63 65/82/63 50/57/63
f 42/56/64 58/83/64 43/58/64
f 54/74/65 70/84/65 55/77/65
f 62/76/66 78/85/66 63/78/66
f 55/77/67 71/86/67 56/79/67
f 64/80/68 78/85/68 79/87/68
f 56/79/69 72/88/69 57/81/69
f 64/80/70 80/89/70 65/82/70
f 58/83/71 72/88/71 73/90/71
f 65/82/72 81/91/72 66/67/72
f 58/83/73 74/92/73 59/68/73
f 67/69/74 81/91/74 82/93/74
f 60/70/75 74/92/75 75/94/75
f 67/69/76 83/95/76 68/71/76
f 61/72/77 75/94/77 76/96/77
f 54/74/78 1/97/78 69/98/78
f 8/99/79 68/71/79 83/95/79
f 61/72/80 77/100/80 62/76/80
f 73/90/81 89/101/81 74/92/81
f 81/91/82 97/102/82 82/93/82
f 75/94/83 89/101/83 90/103/83
f 83/95/84 97/102/84 98/104/84
f 76/96/85 90/103/85 91/105/85
f 69/98/86 1/106/86 84/107/86
f 8/108/87 83/95/87 98/104/87
f 76/96/88 92/109/88 77/100/88
f 69/98/89 85/110/89 70/84/89
f 77/100/90 93/111/90 78/85/90
f 70/84/91 86/112/91 71/86/91
f 79/87/92 93/111/92 94/113/92
f 71/86/93 87/114/93 72/88/93
f 79/87/94 95/115/94 80/89/94
f 73/90/95 87/114/95 88/116/95
f 80/89/96 96/117/96 81/91/96
f 92/109/97 108/118/97 93/111/97
f 85/110/98 101/119/98 86/112/98
f 94/113/99 108/118/99 109/120/99
f 86/112/100 102/121/100 87/114/100
f 94/113/101 110/122/101 95/115/101
f 88/116/102 102/121/102 103/123/102
f 96/117/103 110/122/103 111/124/103
f 88/116/104 104/125/104 89/101/104
f 97/102/105 111/124/105 112/126/105
f 90/103/106 104/125/106 105/127/106
f 97/102/107 113/128/107 98/104/107
f 91/105/108 105/127/108 106/129/108
f 84/107/109 1/130/109 99/131/109
f 8/132/110 98/104/110 113/128/110
f 91/105/111 107/133/111 92/109/111
f 85/110/112 99/131/112 100/134/112
f 111/124/113 127/135/113 112/126/113
f 105/127/114 119/136/114 120/137/114
f 112/126/115 128/138/115 113/128/115
f 106/129/116 120/137/116 121/139/116
f 99/131/117 1/140/117 114/141/117
f 8/142/118 113/128/118 128/138/118
f 106/129/119 122/143/119 107/133/119
f 100/134/120 114/141/120 115/144/120
f 107/133/121 123/145/121 108/118/121
f 100/134/122 116/146/122 101/119/122
f 109/120/123 123/145/123 124/147/123
f 101/119/124 117/148/124 102/121/124
f 109/120/125 125/149/125 110/122/125
f 103/123/126 117/148/126 118/150/126
f 111/124/127 125/149/127 126/151/127
f 103/123/128 119/136/128 104/125/128
f 124/147/129 138/152/129 139/153/129
f 116/146/130 132/154/130 117/148/130
f 124/147/131 140/155/131 125/149/131
f 118/150/132 132/154/132 133/156/132
f 126/151/133 140/155/133 141/157/133
f 118/150/134 134/158/134 119/136/134
f 126/151/135 142/159/135 127/135/135
f 120/137/136 134/158/136 135/160/136
f 127/135/137 143/161/137 128/138/137
f 121/139/138 135/160/138 136/162/138
f 114/141/139 1/163/139 129/164/139
f 8/165/140 128/138/140 143/161/140
f 121/139/141 137/166/141 122/143/141
f 114/141/142 130/167/142 115/144/142
f 122/143/143 138/152/143 123/145/143
f 115/144/144 131/168/144 116/146/144
f 143/161/145 157/169/145 158/170/145
f 136/162/146 150/171/146 151/172/146
f 129/164/147 1/173/147 144/174/147
f 8/175/148 143/161/148 158/170/148
f 136/162/149 152/176/149 137/166/149
f 129/164/150 145/177/150 130/167/150
f 137/166/151 153/178/151 138/152/151
f 131/168/152 145/177/152 146/179/152
f 139/153/153 153/178/153 154/180/153
f 131/168/154 147/181/154 132/154/154
f 139/153/155 155/182/155 140/155/155
f 133/156/156 147/181/156 148/183/156
f 141/157/157 155/182/157 156/184/157
f 133/156/158 149/185/158 134/158/158
f 141/157/159 157/169/159 142/159/159
f 135/160/160 149/185/160 150/171/160
f 146/179/161 162/186/161 147/181/161
f 154/180/162 170/187/162 155/182/162
f 148/183/163 162/186/163 163/188/163
f 156/184/164 170/187/164 171/189/164
f 148/183/165 164/190/165 149/185/165
f 156/184/166 172/191/166 157/169/166
f 150/171/167 164/190/167 165/192/167
f 157/169/168 173/193/168 158/170/168
f 151/172/169 165/192/169 166/194/169
f 144/174/170 1/195/170 159/196/170
f 8/197/171 158/170/171 173/193/171
f 151/172/172 167/198/172 152/176/172
f 144/174/173 160/199/173 145/177/173
f 152/176/174 168/200/174 153/178/174
f 146/179/175 160/199/175 161/201/175
f 154/180/176 168/200/176 169/202/176
f 166/194/177 180/203/177 181/204/177
f 159/196/178 1/205/178 174/206/178
f 8/207/179 173/193/179 188/208/179
f 166/194/180 182/209/180 167/198/180
f 159/196/181 175/210/181 160/199/181
f 167/198/182 183/211/182 168/200/182
f 160/199/183 176/212/183 161/201/183
f 169/202/184 183/211/184 184/213/184
f 161/201/185 177/214/185 162/186/185
f 169/202/186 185/215/186 170/187/186
f 163/188/187 177/214/187 178/216/187
f 170/187/188 186/217/188 171/189/188
f 163/188/189 179/218/189 164/190/189
f 172/191/190 186/217/190 187/219/190
f 165/192/191 179/218/191 180/203/191
f 173/193/192 187/219/192 188/208/192
f 184/213/193 200/220/193 185/215/193
f 178/216/194 192/221/194 193/222/194
f 186/217/195 200/220/195 201/223/195
f 178/216/196 194/224/196 179/218/196
f 186/217/197 202/225/197 187/219/197
f 180/203/198 194/224/198 195/226/198
f 187/219/199 203/227/199 188/208/199
f 181/204/200 195/226/200 196/228/200
f 174/206/201 1/229/201 189/230/201
f 8/231/202 188/208/202 203/227/202
f 181/204/203 197/232/203 182/209/203
f 175/210/204 189/230/204 190/233/204
f 182/209/205 198/234/205 183/211/205
f 176/212/206 190/233/206 191/235/206
f 184/213/207 198/234/207 199/236/207
f 176/212/208 192/221/208 177/214/208
f 189/230/209 1/237/209 204/238/209
f 8/239/210 203/227/210 218/240/210
f 196/228/211 212/241/211 197/232/211
f 189/230/212 205/242/212 190/233/212
f 197/232/213 213/243/213 198/234/213
f 190/233/214 206/244/214 191/235/214
f 199/236/215 213/243/215 214/245/215
f 191/235/216 207/246/216 192/221/216
f 199/236/217 215/247/217 200/220/217
f 193/222/218 207/246/218 208/248/218
f 201/223/219 215/247/219 216/249/219
f 193/222/220 209/250/220 194/224/220
f 201/223/221 217/251/221 202/225/221
f 195/226/222 209/250/222 210/252/222
f 202/225/223 218/240/223 203/227/223
f 196/228/224 210/252/224 211/253/224
f 208/248/225 222/254/225 223/255/225
f 216/249/226 230/256/226 231/257/226
f 208/248/227 224/258/227 209/250/227
f 216/249/228 232/259/228 217/251/228
f 210/252/229 224/258/229 225/260/229
f 217/251/230 233/261/230 218/240/230
f 211/253/231 225/260/231 226/262/231
f 204/238/232 1/263/232 219/264/232
f 8/265/233 218/240/233 233/261/233
f 211/253/234 227/266/234 212/241/234
f 204/238/235 220/267/235 205/242/235
f 212/241/236 228/268/236 213/243/236
f 205/242/237 221/269/237 206/244/237
f 214/245/238 228/268/238 229/270/238
f 206/244/239 222/254/239 207/246/239
f 214/245/240 230/256/240 215/247/240
f 226/262/241 242/271/241 227/266/241
f 219/264/242 235/272/242 220/267/242
f 227/266/243 243/273/243 228/268/243
f 221/269/244 235/272/244 236/274/244
f 229/270/245 243/273/245 244/275/245
f 221/269/246 237/276/246 222/254/246
f 229/270/247 245/277/247 230/256/247
f 223/255/248 237/276/248 238/278/248
f 231/257/249 245/277/249 246/279/249
f 223/255/250 239/280/250 224/258/250
f 231/257/251 247/281/251 232/259/251
f 225/260/252 239/280/252 240/282/252
f 233/261/253 247/281/253 248/283/253
f 226/262/254 240/282/254 241/284/254
f 219/264/255 1/285/255 234/286/255
f 8/287/256 233/261/256 248/283/256
f 246/279/257 260/288/257 261/289/257
f 238/278/258 254/290/258 239/280/258
f 246/279/259 262/291/259 247/281/259
f 240/282/260 254/290/260 255/292/260
f 247/281/261 263/293/261 248/283/261
f 241/284/262 255/292/262 256/294/262
f 234/286/263 1/295/263 249/296/263
f 8/297/264 248/283/264 263/293/264
f 241/284/265 257/298/265 242/271/265
f 234/286/266 250/299/266 235/272/266
f 242/271/267 258/300/267 243/273/267
f 235/272/268 251/301/268 236/274/268
f 244/275/269 258/300/269 259/302/269
f 236/274/270 252/303/270 237/276/270
f 244/275/271 260/288/271 245/277/271
f 238/278/272 252/303/272 253/304/272
f 257/298/273 273/305/273 258/300/273
f 250/299/274 266/306/274 251/301/274
f 259/302/275 273/305/275 274/307/275
f 251/301/276 267/308/276 252/303/276
f 259/302/277 275/309/277 260/288/277
f 253/304/278 267/308/278 268/310/278
f 261/289/279 275/309/279 276/311/279
f 253/304/280 269/312/280 254/290/280
f 261/289/281 277/313/281 262/291/281
f 255/292/282 269/312/282 270/314/282
f 262/291/283 278/315/283 263/293/283
f 256/294/284 270/314/284 271/316/284
f 249/296/285 1/317/285 264/318/285
f 8/319/286 263/293/286 278/315/286
f 256/294/287 272/320/287 257/298/287
f 250/299/288 264/318/288 265/321/288
f 276/311/289 292/322/289 277/313/289
f 270/314/290 284/323/290 285/324/290
f 278/315/291 292/322/291 293/325/291
f 271/316/292 285/324/292 286/326/292
f 264/318/293 1/327/293 279/328/293
f 8/329/294 278/315/294 293/325/294
f 271/316/295 287/330/295 272/320/295
f 265/321/296 279/328/296 280/331/296
f 272/320/297 288/332/297 273/305/297
f 265/321/298 281/333/298 266/306/298
f 274/307/299 288/332/299 289/334/299
f 266/306/300 282/335/300 267/308/300
f 274/307/301 290/336/301 275/309/301
f 268/310/302 282/335/302 283/337/302
f 276/311/303 290/336/303 291/338/303
f 268/310/304 284/323/304 269/312/304
f 280/331/305 296/339/305 281/333/305
f 289/334/306 303/340/306 304/341/306
f 281/333/307 297/342/307 282/335/307
f 289/334/308 305/343/308 290/336/308
f 283/337/309 297/342/309 298/344/309
f 291/338/310 305/343/310 306/345/310
f 283/337/311 299/346/311 284/323/311
f 291/338/312 307/347/312 292/322/312
f 285/324/313 299/346/313 300/348/313
f 293/325/314 307/347/314 308/349/314
f 286/326/315 300/348/315 301/350/315
f 279/328/316 1/351/316 294/352/316
f 8/353/317 293/325/317 308/349/317
f 286/326/318 302/354/318 287/330/318
f 279/328/319 295/355/319 280/331/319
f 287/330/320 303/340/320 288/332/320
f 300/348/321 314/356/321 315/357/321
f 307/347/322 323/358/322 308/349/322
f 301/350/323 315/357/323 316/359/323
f 294/352/324 1/360/324 309/361/324
f 8/362/325 308/349/325 323/358/325
f 301/350/326 317/363/326 302/354/326
f 294/352/327 310/364/327 295/355/327
f 302/354/328 318/365/328 303/340/328
f 295/355/329 311/366/329 296/339/329
f 304/341/330 318/365/330 319/367/330
f 296/339/331 312/368/331 297/342/331
f 304/341/332 320/369/332 305/343/332
f 298/344/333 312/368/333 313/370/333
f 306/345/334 320/369/334 321/371/334
f 298/344/335 314/356/335 299/346/335
f 306/345/336 322/372/336 307/347/336
f 319/367/337 333/373/337 334/374/337
f 311/366/338 327/375/338 312/368/338
f 319/367/339 335/376/339 320/369/339
f 312/368/340 328/377/340 313/370/340
f 321/371/341 335/376/341 336/378/341
f 313/370/342 329/379/342 314/356/342
f 321/371/343 337/380/343 322/372/343
f 315/357/344 329/379/344 330/381/344
f 322/372/345 338/382/345 323/358/345
f 316/359/346 330/381/346 331/383/346
f 309/361/347 1/384/347 324/385/347
f 8/386/348 323/358/348 338/382/348
f 316/359/349 332/387/349 317/363/349
f 309/361/350 325/388/350 310/364/350
f 317/363/351 333/373/351 318/365/351
f 310/364/352 326/389/352 311/366/352
f 337/380/353 353/390/353 338/382/353
f 331/383/354 345/391/354 346/392/354
f 324/385/355 1/393/355 339/394/355
f 8/395/356 338/382/356 353/390/356
f 331/383/357 347/396/357 332/387/357
f 324/385/358 340/397/358 325/388/358
f 332/387/359 348/398/359 333/373/359
f 325/388/360 341/399/360 326/389/360
f 334/374/361 348/398/361 349/400/361
f 326/389/362 342/401/362 327/375/362
f 334/374/363 350/402/363 335/376/363
f 328/377/364 342/401/364 343/403/364
f 336/378/365 350/402/365 351/404/365
f 328/377/366 344/405/366 329/379/366
f 336/378/367 352/406/367 337/380/367
f 330/381/368 344/405/368 345/391/368
f 341/399/369 357/407/369 342/401/369
f 349/400/370 365/408/370 350/402/370
f 343/403/371 357/407/371 358/409/371
f 351/404/372 365/408/372 366/410/372
f 343/403/373 359/411/373 344/405/373
f 351/404/374 367/412/374 352/406/374
f 345/391/375 359/411/375 360/413/375
f 352/406/376 368/414/376 353/390/376
f 346/392/377 360/413/377 361/415/377
f 339/394/378 1/416/378 354/417/378
f 8/418/379 353/390/379 368/414/379
f 346/392/380 362/419/380 347/396/380
f 339/394/381 355/420/381 340/397/381
f 347/396/382 363/421/382 348/398/382
f 341/399/383 355/420/383 356/422/383
f 349/400/384 363/421/384 364/423/384
f 361/424/385 375/425/385 376/426/385
f 354/427/386 1/428/386 369/429/386
f 8/430/387 368/431/387 383/432/387
f 361/424/388 377/433/388 362/434/388
f 354/427/389 370/435/389 355/436/389
f 362/434/390 378/437/390 363/438/390
f 356/439/391 370/435/391 371/440/391
f 364/441/392 378/437/392 379/442/392
f 356/439/393 372/443/393 357/444/393
f 364/441/394 380/445/394 365/446/394
f 358/447/395 372/443/395 373/448/395
f 366/449/396 380/445/396 381/450/396
f 358/447/397 374/451/397 359/452/397
f 366/449/398 382/453/398 367/454/398
f 360/455/399 374/451/399 375/425/399
f 367/454/400 383/432/400 368/431/400
f 379/442/401 395/456/401 380/445/401
f 373/448/402 387/457/402 388/458/402
f 381/450/403 395/456/403 396/459/403
f 373/448/404 389/460/404 374/451/404
f 381/450/405 397/461/405 382/453/405
f 375/425/406 389/460/406 390/462/406
f 382/453/407 398/463/407 383/432/407
f 376/426/408 390/462/408 391/464/408
f 369/429/409 1/465/409 384/466/409
f 8/467/410 383/432/410 398/463/410
f 376/426/411 392/468/411 377/433/411
f 369/429/412 385/469/412 370/435/412
f 377/433/413 393/470/413 378/437/413
f 371/440/414 385/469/414 386/471/414
f 379/442/415 393/470/415 394/472/415
f 371/440/416 387/457/416 372/443/416
f 8/473/417 398/463/417 413/474/417
f 391/464/418 407/475/418 392/468/418
f 385/469/419 399/476/419 400/477/419
f 392/468/420 408/478/420 393/470/420
f 385/469/421 401/479/421 386/471/421
f 394/472/422 408/478/422 409/480/422
f 386/471/423 402/481/423 387/457/423
f 394/472/424 410/482/424 395/456/424
f 388/458/425 402/481/425 403/483/425
f 396/459/426 410/482/426 411/484/426
f 388/458/427 404/485/427 389/460/427
f 397/461/428 411/484/428 412/486/428
f 390/462/429 404/485/429 405/487/429
f 397/461/430 413/474/430 398/463/430
f 391/464/431 405/487/431 406/488/431
f 384/466/432 1/489/432 399/476/432
f 411/484/433 425/490/433 426/491/433
f 403/483/434 419/492/434 404/485/434
f 411/484/435 427/493/435 412/486/435
f 405/487/436 419/492/436 420/494/436
f 412/486/437 428/495/437 413/474/437
f 406/488/438 420/494/438 421/496/438
f 399/476/439 1/497/439 414/498/439
f 8/499/440 413/474/440 428/495/440
f 406/488/441 422/500/441 407/475/441
f 399/476/442 415/501/442 400/477/442
f 407/475/443 423/502/443 408/478/443
f 401/479/444 415/501/444 416/503/444
f 409/480/445 423/502/445 424/504/445
f 401/479/446 417/505/446 402/481/446
f 409/480/447 425/490/447 410/482/447
f 403/483/448 417/505/448 418/506/448
f 414/498/449 430/507/449 415/501/449
f 422/500/450 438/508/450 423/502/450
f 416/503/451 430/507/451 431/509/451
f 424/504/452 438/508/452 439/510/452
f 416/503/453 432/511/453 417/505/453
f 424/504/454 440/512/454 425/490/454
f 418/506/455 432/511/455 433/513/455
f 426/491/456 440/512/456 441/514/456
f 418/506/457 434/515/457 419/492/457
f 426/491/458 442/516/458 427/493/458
f 420/494/459 434/515/459 435/517/459
f 427/493/460 443/518/460 428/495/460
f 421/496/461 435/517/461 436/519/461
f 414/498/462 1/520/462 429/521/462
f 8/522/463 428/495/463 443/518/463
f 421/496/464 437/523/464 422/500/464
f 433/513/465 449/524/465 434/515/465
f 441/514/466 457/525/466 442/516/466
f 435/517/467 449/524/467 450/526/467
f 442/516/468 458/527/468 443/518/468
f 436/519/469 450/526/469 451/528/469
f 429/521/470 1/529/470 444/530/470
f 8/531/471 443/518/471 458/527/471
f 436/519/472 452/532/472 437/523/472
f 430/507/473 444/530/473 445/533/473
f 437/523/474 453/534/474 438/508/474
f 430/507/475 446/535/475 431/509/475
f 439/510/476 453/534/476 454/536/476
f 431/509/477 447/537/477 432/511/477
f 439/510/478 455/538/478 440/512/478
f 433/513/479 447/537/479 448/539/479
f 441/514/480 455/538/480 456/540/480
f 452/532/481 468/541/481 453/534/481
f 446/535/482 460/542/482 461/543/482
f 454/536/483 468/541/483 469/544/483
f 446/535/484 462/545/484 447/537/484
f 454/536/485 470/546/485 455/538/485
f 448/539/486 462/545/486 463/547/486
f 456/540/487 470/546/487 471/548/487
f 448/539/488 464/549/488 449/524/488
f 456/540/489 472/550/489 457/525/489
f 450/526/490 464/549/490 465/551/490
f 458/527/491 472/550/491 473/552/491
f 451/528/492 465/551/492 466/553/492
f 444/530/493 1/554/493 459/555/493
f 8/556/494 458/527/494 473/552/494
f 451/528/495 467/557/495 452/532/495
f 444/530/496 460/542/496 445/533/496
f 471/548/497 481/6/497 472/550/497
f 465/551/498 477/1/498 4/7/498
f 472/550/499 482/10/499 473/552/499
f 466/553/500 4/7/500 5/12/500
f 459/555/501 1/558/501 474/13/501
f 8/559/502 473/552/502 482/10/502
f 466/553/503 6/18/503 467/557/503
f 460/542/504 474/13/504 475/19/504
f 467/557/505 478/22/505 468/541/505
f 461/543/506 475/19/506 2/23/506
f 468/541/507 7/26/507 469/544/507
f 462/545/508 2/23/508 476/27/508
f 469/544/509 479/30/509 470/546/509
f 463/547/510 476/27/510 3/31/510
f 471/548/511 479/30/511 480/4/511
f 464/549/512 3/31/512 477/1/512
f 477/1/1 3/31/1 13/2/1
f 480/4/2 21/32/2 22/5/2
f 4/7/3 477/1/3 14/3/3
f 481/6/4 22/5/4 23/9/4
f 4/7/513 15/8/513 16/11/513
f 5/12/514 16/11/514 17/17/514
f 475/19/9 474/13/9 9/15/9
f 6/18/10 17/17/10 18/21/10
f 2/23/11 475/19/11 10/20/11
f 478/22/12 18/21/12 19/25/12
f 476/27/13 2/23/13 11/24/13
f 7/26/14 19/25/14 20/29/14
f 3/31/15 476/27/15 12/28/15
f 479/30/16 20/29/16 21/32/16
f 12/28/17 27/49/17 28/33/17
f 21/32/18 20/29/18 35/34/18
f 13/2/19 28/33/19 29/36/19
f 22/5/20 21/32/20 36/35/20
f 15/8/21 14/3/21 29/36/21
f 22/5/22 37/37/22 38/39/22
f 15/8/23 30/38/23 31/40/23
f 16/11/26 31/40/26 32/44/26
f 9/15/27 24/42/27 25/45/27
f 17/17/28 32/44/28 33/46/28
f 10/20/29 25/45/29 26/47/29
f 18/21/30 33/46/30 34/48/30
f 11/24/31 26/47/31 27/49/31
f 19/25/32 34/48/32 35/34/32
f 32/44/33 31/40/33 46/50/33
f 24/42/34 39/65/34 40/52/34
f 32/44/35 47/51/35 48/53/35
f 25/45/515 40/52/515 41/54/515
f 34/48/37 33/46/37 48/53/37
f 26/47/38 41/54/38 42/56/38
f 35/34/39 34/48/39 49/55/39
f 27/49/40 42/56/40 43/58/40
f 36/35/41 35/34/41 50/57/41
f 28/33/42 43/58/42 44/60/42
f 36/35/516 51/59/516 52/61/516
f 29/36/44 44/60/44 45/62/44
f 37/37/45 52/61/45 53/63/45
f 30/38/46 45/62/46 46/50/46
f 50/57/49 65/82/49 66/67/49
f 43/58/50 58/83/50 59/68/50
f 51/59/51 66/67/51 67/69/51
f 45/62/52 44/60/52 59/68/52
f 52/61/53 67/69/53 68/71/53
f 46/50/54 45/62/54 60/70/54
f 46/50/57 61/72/57 62/76/57
f 39/65/58 54/74/58 55/77/58
f 47/51/59 62/76/59 63/78/59
f 40/52/60 55/77/60 56/79/60
f 49/55/61 48/53/61 63/78/61
f 41/54/62 56/79/62 57/81/62
f 49/55/63 64/80/63 65/82/63
f 42/56/64 57/81/64 58/83/64
f 54/74/65 69/98/65 70/84/65
f 62/76/66 77/100/66 78/85/66
f 55/77/67 70/84/67 71/86/67
f 64/80/68 63/78/68 78/85/68
f 56/79/69 71/86/69 72/88/69
f 64/80/70 79/87/70 80/89/70
f 58/83/71 57/81/71 72/88/71
f 65/82/72 80/89/72 81/91/72
f 58/83/73 73/90/73 74/92/73
f 67/69/74 66/67/74 81/91/74
f 60/70/75 59/68/75 74/92/75
f 67/69/517 82/93/517 83/95/517
f 61/72/77 60/70/77 75/94/77
f 61/72/80 76/96/80 77/100/80
f 73/90/81 88/116/81 89/101/81
f 81/91/82 96/117/82 97/102/82
f 75/94/83 74/92/83 89/101/83
f 83/95/84 82/93/84 97/102/84
f 76/96/85 75/94/85 90/103/85
f 76/96/88 91/105/88 92/109/88
f 69/98/89 84/107/89 85/110/89
f 77/100/90 92/109/90 93/111/90
f 70/84/91 85/110/91 86/112/91
f 79/87/92 78/85/92 93/111/92
f 71/86/93 86/112/93 87/114/93
f 79/87/94 94/113/94 95/115/94
f 73/90/95 72/88/95 87/114/95
f 80/89/96 95/115/96 96/117/96
f 92/109/97 107/133/97 108/118/97
f 85/110/98 100/134/98 101/119/98
f 94/113/99 93/111/99 108/118/99
f 86/112/100 101/119/100 102/121/100
f 94/113/101 109/120/101 110/122/101
f 88/116/102 87/114/102 102/121/102
f 96/117/103 95/115/103 110/122/103
f 88/116/104 103/123/104 104/125/104
f 97/102/105 96/117/105 111/124/105
f 90/103/106 89/101/106 104/125/106
f 97/102/107 112/126/107 113/128/107
f 91/105/108 90/103/108 105/127/108
f 91/105/111 106/129/111 107/133/111
f 85/110/112 84/107/112 99/131/112
f 111/124/113 126/151/113 127/135/113
f 105/127/114 104/125/114 119/136/114
f 112/126/115 127/135/115 128/138/115
f 106/129/116 105/127/116 120/137/116
f 106/129/119 121/139/119 122/143/119
f 100/134/120 99/131/120 114/141/120
f 107/133/121 122/143/121 123/145/121
f 100/134/122 115/144/122 116/146/122
f 109/120/123 108/118/123 123/145/123
f 101/119/124 116/146/124 117/148/124
f 109/120/125 124/147/125 125/149/125
f 103/123/126 102/121/126 117/148/126
f 111/124/127 110/122/127 125/149/127
f 103/123/128 118/150/128 119/136/128
f 124/147/129 123/145/129 138/152/129
f 116/146/130 131/168/130 132/154/130
f 124/147/131 139/153/131 140/155/131
f 118/150/132 117/148/132 132/154/132
f 126/151/133 125/149/133 140/155/133
f 118/150/134 133/156/134 134/158/134
f 126/151/135 141/157/135 142/159/135
f 120/137/136 119/136/136 134/158/136
f 127/135/137 142/159/137 143/161/137
f 121/139/138 120/137/138 135/160/138
f 121/139/141 136/162/141 137/166/141
f 114/141/142 129/164/142 130/167/142
f 122/143/143 137/166/143 138/152/143
f 115/144/144 130/167/144 131/168/144
f 143/161/145 142/159/145 157/169/145
f 136/162/146 135/160/146 150/171/146
f 136/162/149 151/172/149 152/176/149
f 129/164/150 144/174/150 145/177/150
f 137/166/151 152/176/151 153/178/151
f 131/168/152 130/167/152 145/177/152
f 139/153/153 138/152/153 153/178/153
f 131/168/154 146/179/154 147/181/154
f 139/153/155 154/180/155 155/182/155
f 133/156/156 132/154/156 147/181/156
f 141/157/157 140/155/157 155/182/157
f 133/156/158 148/183/158 149/185/158
f 141/157/159 156/184/159 157/169/159
f 135/160/160 134/158/160 149/185/160
f 146/179/161 161/201/161 162/186/161
f 154/180/162 169/202/162 170/187/162
f 148/183/163 147/181/163 162/186/163
f 156/184/164 155/182/164 170/187/164
f 148/183/165 163/188/165 164/190/165
f 156/184/518 171/189/518 172/191/518
f 150/171/167 149/185/167 164/190/167
f 157/169/168 172/191/168 173/193/168
f 151/172/169 150/171/169 165/192/169
f 151/172/172 166/194/172 167/198/172
f 144/174/173 159/196/173 160/199/173
f 152/176/174 167/198/174 168/200/174
f 146/179/519 145/177/519 160/199/519
f 154/180/176 153/178/176 168/200/176
f 166/194/177 165/192/177 180/203/177
f 166/194/180 181/204/180 182/209/180
f 159/196/181 174/206/181 175/210/181
f 167/198/182 182/209/182 183/211/182
f 160/199/183 175/210/183 176/212/183
f 169/202/184 168/200/184 183/211/184
f 161/201/185 176/212/185 177/214/185
f 169/202/186 184/213/186 185/215/186
f 163/188/187 162/186/187 177/214/187
f 170/187/188 185/215/188 186/217/188
f 163/188/189 178/216/189 179/218/189
f 172/191/190 171/189/190 186/217/190
f 165/192/191 164/190/191 179/218/191
f 173/193/192 172/191/192 187/219/192
f 184/213/193 199/236/193 200/220/193
f 178/216/194 177/214/194 192/221/194
f 186/217/195 185/215/195 200/220/195
f 178/216/196 193/222/196 194/224/196
f 186/217/197 201/223/197 202/225/197
f 180/203/198 179/218/198 194/224/198
f 187/219/199 202/225/199 203/227/199
f 181/204/200 180/203/200 195/226/200
f 181/204/203 196/228/203 197/232/203
f 175/210/204 174/206/204 189/230/204
f 182/209/205 197/232/205 198/234/205
f 176/212/206 175/210/206 190/233/206
f 184/213/207 183/211/207 198/234/207
f 176/212/208 191/235/208 192/221/208
f 196/228/211 211/253/211 212/241/211
f 189/230/212 204/238/212 205/242/212
f 197/232/213 212/241/213 213/243/213
f 190/233/214 205/242/214 206/244/214
f 199/236/215 198/234/215 213/243/215
f 191/235/216 206/244/216 207/246/216
f 199/236/217 214/245/217 215/247/217
f 193/222/218 192/221/218 207/246/218
f 201/223/219 200/220/219 215/247/219
f 193/222/220 208/248/220 209/250/220
f 201/223/520 216/249/520 217/251/520
f 195/226/222 194/224/222 209/250/222
f 202/225/223 217/251/223 218/240/223
f 196/228/224 195/226/224 210/252/224
f 208/248/225 207/246/225 222/254/225
f 216/249/226 215/247/226 230/256/226
f 208/248/227 223/255/227 224/258/227
f 216/249/228 231/257/228 232/259/228
f 210/252/229 209/250/229 224/258/229
f 217/251/230 232/259/230 233/261/230
f 211/253/231 210/252/231 225/260/231
f 211/253/234 226/262/234 227/266/234
f 204/238/235 219/264/235 220/267/235
f 212/241/236 227/266/236 228/268/236
f 205/242/237 220/267/237 221/269/237
f 214/245/238 213/243/238 228/268/238
f 206/244/239 221/269/239 222/254/239
f 214/245/240 229/270/240 230/256/240
f 226/262/241 241/284/241 242/271/241
f 219/264/242 234/286/242 235/272/242
f 227/266/243 242/271/243 243/273/243
f 221/269/244 220/267/244 235/272/244
f 229/270/245 228/268/245 243/273/245
f 221/269/246 236/274/246 237/276/246
f 229/270/247 244/275/247 245/277/247
f 223/255/248 222/254/248 237/276/248
f 231/257/249 230/256/249 245/277/249
f 223/255/250 238/278/250 239/280/250
f 231/257/251 246/279/251 247/281/251
f 225/260/252 224/258/252 239/280/252
f 233/261/253 232/259/253 247/281/253
f 226/262/254 225/260/254 240/282/254
f 246/279/257 245/277/257 260/288/257
f 238/278/258 253/304/258 254/290/258
f 246/279/259 261/289/259 262/291/259
f 240/282/260 239/280/260 254/290/260
f 247/281/261 262/291/261 263/293/261
f 241/284/521 240/282/521 255/292/521
f 241/284/522 256/294/522 257/298/522
f 234/286/266 249/296/266 250/299/266
f 242/271/267 257/298/267 258/300/267
f 235/272/268 250/299/268 251/301/268
f 244/275/269 243/273/269 258/300/269
f 236/274/270 251/301/270 252/303/270
f 244/275/271 259/302/271 260/288/271
f 238/278/272 237/276/272 252/303/272
f 257/298/273 272/320/273 273/305/273
f 250/299/274 265/321/274 266/306/274
f 259/302/275 258/300/275 273/305/275
f 251/301/276 266/306/276 267/308/276
f 259/302/277 274/307/277 275/309/277
f 253/304/278 252/303/278 267/308/278
f 261/289/279 260/288/279 275/309/279
f 253/304/280 268/310/280 269/312/280
f 261/289/281 276/311/281 277/313/281
f 255/292/282 254/290/282 269/312/282
f 262/291/283 277/313/283 278/315/283
f 256/294/284 255/292/284 270/314/284
f 256/294/287 271/316/287 272/320/287
f 250/299/288 249/296/288 264/318/288
f 276/311/523 291/338/523 292/322/523
f 270/314/290 269/312/290 284/323/290
f 278/315/291 277/313/291 292/322/291
f 271/316/292 270/314/292 285/324/292
f 271/316/295 286/326/295 287/330/295
f 265/321/296 264/318/296 279/328/296
f 272/320/297 287/330/297 288/332/297
f 265/321/524 280/331/524 281/333/524
f 274/307/299 273/305/299 288/332/299
f 266/306/300 281/333/300 282/335/300
f 274/307/301 289/334/301 290/336/301
f 268/310/302 267/308/302 282/335/302
f 276/311/303 275/309/303 290/336/303
f 268/310/304 283/337/304 284/323/304
f 280/331/305 295/355/305 296/339/305
f 289/334/306 288/332/306 303/340/306
f 281/333/307 296/339/307 297/342/307
f 289/334/308 304/341/308 305/343/308
f 283/337/309 282/335/309 297/342/309
f 291/338/310 290/336/310 305/343/310
f 283/337/311 298/344/311 299/346/311
f 291/338/312 306/345/312 307/347/312
f 285/324/313 284/323/313 299/346/313
f 293/325/314 292/322/314 307/347/314
f 286/326/315 285/324/315 300/348/315
f 286/326/318 301/350/318 302/354/318
f 279/328/319 294/352/319 295/355/319
f 287/330/320 302/354/320 303/340/320
f 300/348/321 299/346/321 314/356/321
f 307/347/525 322/372/525 323/358/525
f 301/350/323 300/348/323 315/357/323
f 301/350/326 316/359/326 317/363/326
f 294/352/327 309/361/327 310/364/327
f 302/354/328 317/363/328 318/365/328
f 295/355/329 310/364/329 311/366/329
f 304/341/330 303/340/330 318/365/330
f 296/339/331 311/366/331 312/368/331
f 304/341/332 319/367/332 320/369/332
f 298/344/333 297/342/333 312/368/333
f 306/345/334 305/343/334 320/369/334
f 298/344/335 313/370/335 314/356/335
f 306/345/336 321/371/336 322/372/336
f 319/367/337 318/365/337 333/373/337
f 311/366/338 326/389/338 327/375/338
f 319/367/339 334/374/339 335/376/339
f 312/368/340 327/375/340 328/377/340
f 321/371/341 320/369/341 335/376/341
f 313/370/342 328/377/342 329/379/342
f 321/371/526 336/378/526 337/380/526
f 315/357/344 314/356/344 329/379/344
f 322/372/345 337/380/345 338/382/345
f 316/359/346 315/357/346 330/381/346
f 316/359/349 331/383/349 332/387/349
f 309/361/350 324/385/350 325/388/350
f 317/363/351 332/387/351 333/373/351
f 310/364/352 325/388/352 326/389/352
f 337/380/353 352/406/353 353/390/353
f 331/383/354 330/381/354 345/391/354
f 331/383/357 346/392/357 347/396/357
f 324/385/358 339/394/358 340/397/358
f 332/387/359 347/396/359 348/398/359
f 325/388/360 340/397/360 341/399/360
f 334/374/361 333/373/361 348/398/361
f 326/389/362 341/399/362 342/401/362
f 334/374/363 349/400/363 350/402/363
f 328/377/364 327/375/364 342/401/364
f 336/378/365 335/376/365 350/402/365
f 328/377/366 343/403/366 344/405/366
f 336/378/367 351/404/367 352/406/367
f 330/381/368 329/379/368 344/405/368
f 341/399/369 356/422/369 357/407/369
f 349/400/370 364/423/370 365/408/370
f 343/403/371 342/401/371 357/407/371
f 351/404/372 350/402/372 365/408/372
f 343/403/373 358/409/373 359/411/373
f 351/404/374 366/410/374 367/412/374
f 345/391/375 344/405/375 359/411/375
f 352/406/376 367/412/376 368/414/376
f 346/392/527 345/391/527 360/413/527
f 346/392/528 361/415/528 362/419/528
f 339/394/381 354/417/381 355/420/381
f 347/396/382 362/419/382 363/421/382
f 341/399/383 340/397/383 355/420/383
f 349/400/384 348/398/384 363/421/384
f 361/424/529 360/455/529 375/425/529
f 361/424/530 376/426/530 377/433/530
f 354/427/389 369/429/389 370/435/389
f 362/434/390 377/433/390 378/437/390
f 356/439/391 355/436/391 370/435/391
f 364/441/392 363/438/392 378/437/392
f 356/439/393 371/440/393 372/443/393
f 364/441/394 379/442/394 380/445/394
f 358/447/395 357/444/395 372/443/395
f 366/449/396 365/446/396 380/445/396
f 358/447/397 373/448/397 374/451/397
f 366/449/398 381/450/398 382/453/398
f 360/455/399 359/452/399 374/451/399
f 367/454/400 382/453/400 383/432/400
f 379/442/401 394/472/401 395/456/401
f 373/448/402 372/443/402 387/457/402
f 381/450/403 380/445/403 395/456/403
f 373/448/404 388/458/404 389/460/404
f 381/450/405 396/459/405 397/461/405
f 375/425/406 374/451/406 389/460/406
f 382/453/407 397/461/407 398/463/407
f 376/426/408 375/425/408 390/462/408
f 376/426/411 391/464/411 392/468/411
f 369/429/412 384/466/412 385/469/412
f 377/433/413 392/468/413 393/470/413
f 371/440/414 370/435/414 385/469/414
f 379/442/415 378/437/415 393/470/415
f 371/440/416 386/471/416 387/457/416
f 391/464/418 406/488/418 407/475/418
f 385/469/419 384/466/419 399/476/419
f 392/468/420 407/475/420 408/478/420
f 385/469/421 400/477/421 401/479/421
f 394/472/422 393/470/422 408/478/422
f 386/471/423 401/479/423 402/481/423
f 394/472/424 409/480/424 410/482/424
f 388/458/425 387/457/425 402/481/425
f 396/459/426 395/456/426 410/482/426
f 388/458/427 403/483/427 404/485/427
f 397/461/428 396/459/428 411/484/428
f 390/462/429 389/460/429 404/485/429
f 397/461/430 412/486/430 413/474/430
f 391/464/431 390/462/431 405/487/431
f 411/484/433 410/482/433 425/490/433
f 403/483/434 418/506/434 419/492/434
f 411/484/435 426/491/435 427/493/435
f 405/487/436 404/485/436 419/492/436
f 412/486/437 427/493/437 428/495/437
f 406/488/438 405/487/438 420/494/438
f 406/488/441 421/496/441 422/500/441
f 399/476/442 414/498/442 415/501/442
f 407/475/443 422/500/443 423/502/443
f 401/479/444 400/477/444 415/501/444
f 409/480/445 408/478/445 423/502/445
f 401/479/446 416/503/446 417/505/446
f 409/480/447 424/504/447 425/490/447
f 403/483/448 402/481/448 417/505/448
f 414/498/449 429/521/449 430/507/449
f 422/500/450 437/523/450 438/508/450
f 416/503/451 415/501/451 430/507/451
f 424/504/452 423/502/452 438/508/452
f 416/503/453 431/509/453 432/511/453
f 424/504/454 439/510/454 440/512/454
f 418/506/455 417/505/455 432/511/455
f 426/491/456 425/490/456 440/512/456
f 418/506/457 433/513/457 434/515/457
f 426/491/458 441/514/458 442/516/458
f 420/494/459 419/492/459 434/515/459
f 427/493/460 442/516/460 443/518/460
f 421/496/461 420/494/461 435/517/461
f 421/496/464 436/519/464 437/523/464
f 433/513/465 448/539/465 449/524/465
f 441/514/466 456/540/466 457/525/466
f 435/517/467 434/515/467 449/524/467
f 442/516/468 457/525/468 458/527/468
f 436/519/469 435/517/469 450/526/469
f 436/519/472 451/528/472 452/532/472
f 430/507/473 429/521/473 444/530/473
f 437/523/474 452/532/474 453/534/474
f 430/507/475 445/533/475 446/535/475
f 439/510/476 438/508/476 453/534/476
f 431/509/477 446/535/477 447/537/477
f 439/510/478 454/536/478 455/538/478
f 433/513/479 432/511/479 447/537/479
f 441/514/480 440/512/480 455/538/480
f 452/532/481 467/557/481 468/541/481
f 446/535/482 445/533/482 460/542/482
f 454/536/483 453/534/483 468/541/483
f 446/535/484 461/543/484 462/545/484
f 454/536/485 469/544/485 470/546/485
f 448/539/486 447/537/486 462/545/486
f 456/540/487 455/538/487 470/546/487
f 448/539/488 463/547/488 464/549/488
f 456/540/489 471/548/489 472/550/489
f 450/526/490 449/524/490 464/549/490
f 458/527/491 457/525/491 472/550/491
f 451/528/492 450/526/492 465/551/492
f 451/528/495 466/553/495 467/557/495
f 444/530/496 459/555/496 460/542/496
f 471/548/497 480/4/497 481/6/497
f 465/551/498 464/549/498 477/1/498
f 472/550/499 481/6/499 482/10/499
f 466/553/500 465/551/500 4/7/500
f 466/553/503 5/12/503 6/18/503
f 460/542/504 459/555/504 474/13/504
f 467/557/505 6/18/505 478/22/505
f 461/543/506 460/542/506 475/19/506
f 468/541/507 478/22/507 7/26/507
f 462/545/508 461/543/508 2/23/508
f 469/544/509 7/26/509 479/30/509
f 463/547/510 462/545/510 476/27/510
f 471/548/511 470/546/511 479/30/511
f 464/549/512 463/547/512 3/31/512
